<svg width="24" height="34" viewBox="0 0 24 34" fill="none" xmlns="http://www.w3.org/2000/svg">
<path d="M23.8973 17.6419C23.4534 18.0008 23.1143 17.9786 22.8074 18.073C22.5533 18.157 22.2357 18.2196 22.0881 18.4522C21.6028 19.15 21.0429 19.6674 20.2383 19.8769C19.5713 20.0549 19.434 20.171 19.9228 20.6599C21.06 21.7971 21.7421 23.113 22.0223 24.6395C22.3132 26.2191 21.5965 27.4459 20.5085 28.4915C18.4697 30.4665 16.1111 31.826 13.2836 32.2518C10.5195 32.6777 7.8309 33.4958 5.056 33.8263C4.88654 33.847 4.68572 34.0053 4.56856 33.8036C4.46208 33.6338 4.75842 33.5287 4.84273 33.3807C6.68644 29.9853 8.46651 26.5686 10.5756 23.3329C11.2822 22.265 12.116 21.2187 12.8117 20.0765C12.1651 19.9792 11.4764 19.9665 10.9683 20.1132C8.04656 20.9307 5.17816 21.8648 2.32071 22.9156C1.68572 23.1467 1.54723 22.9026 1.38625 22.2346C0.785623 19.8594 0.725318 17.4754 0.749711 15.0703C0.758841 14.5936 0.884486 14.1066 0.808854 13.6296C0.733482 13.2373 0.891531 12.9518 1.34768 13.1333C3.81952 14.1686 6.42777 14.7699 8.94153 15.6571C9.89614 15.999 10.9341 15.8963 11.9199 16.0371C12.1107 16.0588 12.2695 16.0063 12.4601 15.9645C12.82 15.8809 12.9995 15.6801 12.7762 15.3934C12.2019 14.6923 11.6488 13.9914 11.0533 13.3114C10.0007 12.111 9.08571 10.8579 8.2763 9.49926C7.40294 8.01327 6.45544 6.53763 5.71958 4.97789C5.1863 3.83198 5.01274 2.51765 4.45827 1.37168C4.22368 0.883582 4.29723 0.682501 4.89095 0.811467C7.96552 1.45662 10.8828 2.64165 13.842 3.65728C15.0723 4.08486 16.3551 4.33249 17.5541 4.89772C18.944 5.54829 20.2179 6.33625 21.1645 7.51521C22.0792 8.6623 22.3271 10.051 22.2363 11.5235C22.1456 13.0595 21.3543 14.1271 20.2341 15.0773C19.6001 15.6051 19.622 15.8594 20.3858 16.1584C21.5314 16.5858 22.4979 17.3622 23.8761 17.6207L23.8973 17.6419ZM20.7635 18.3952C21.0708 18.4067 21.3035 18.2803 21.3238 17.9837C21.3546 17.6765 21.2053 17.3582 20.8768 17.3254C20.5376 17.282 20.4644 17.6102 20.4441 17.9068C20.4132 18.1928 20.5196 18.3414 20.7635 18.3952Z" fill="white"/>
</svg>
