<svg width="14" height="14" viewBox="0 0 14 14" fill="none" xmlns="http://www.w3.org/2000/svg">
<path d="M5.55351 4.19386C5.70987 3.85395 5.79824 3.48004 5.79824 3.07895C5.79824 1.57653 4.58136 0.359649 3.07895 0.359649C1.57653 0.359649 0.359649 1.57653 0.359649 3.07895C0.359649 4.58136 1.57653 5.79824 3.07895 5.79824C3.48004 5.79824 3.85395 5.70987 4.19386 5.55351L5.79824 7.15789L4.19386 8.76228C3.85395 8.60592 3.48004 8.51754 3.07895 8.51754C1.57653 8.51754 0.359649 9.73443 0.359649 11.2368C0.359649 12.7393 1.57653 13.9561 3.07895 13.9561C4.58136 13.9561 5.79824 12.7393 5.79824 11.2368C5.79824 10.8357 5.70987 10.4618 5.55351 10.1219L7.15789 8.51754L11.9167 13.2763H13.9561V12.5965L5.55351 4.19386ZM3.07895 4.4386C2.33114 4.4386 1.7193 3.83355 1.7193 3.07895C1.7193 2.32434 2.33114 1.7193 3.07895 1.7193C3.82675 1.7193 4.4386 2.32434 4.4386 3.07895C4.4386 3.83355 3.82675 4.4386 3.07895 4.4386ZM3.07895 12.5965C2.33114 12.5965 1.7193 11.9914 1.7193 11.2368C1.7193 10.4822 2.33114 9.87719 3.07895 9.87719C3.82675 9.87719 4.4386 10.4822 4.4386 11.2368C4.4386 11.9914 3.82675 12.5965 3.07895 12.5965ZM7.15789 7.49781C6.96754 7.49781 6.81798 7.34824 6.81798 7.15789C6.81798 6.96754 6.96754 6.81798 7.15789 6.81798C7.34824 6.81798 7.49781 6.96754 7.49781 7.15789C7.49781 7.34824 7.34824 7.49781 7.15789 7.49781ZM11.9167 1.03947L7.83772 5.11842L9.19737 6.47807L13.9561 1.7193V1.03947H11.9167Z" fill="#EB6852"/>
</svg>
