<svg width="26" height="26" viewBox="0 0 26 26" fill="none" xmlns="http://www.w3.org/2000/svg">
<g clip-path="url(#clip0_44_5333)">
<path d="M17.2726 18.9323C15.8234 18.9323 14.4311 18.678 13.0981 18.1672C11.765 17.6563 10.5833 16.9481 9.55715 16.0426C8.53106 15.1371 7.71325 14.0672 7.10373 12.8306C6.49421 11.5962 6.18945 10.2522 6.18945 8.80293C6.18945 8.32058 6.3232 7.91277 6.59288 7.58389C6.86255 7.25501 7.24405 7.09058 7.73737 7.09058H9.26994C9.56592 7.09058 9.79614 7.17608 9.96058 7.34491C10.125 7.51592 10.2412 7.75929 10.307 8.07721C10.3728 8.40608 10.4473 8.74592 10.5284 9.09892C10.6118 9.44972 10.706 9.76325 10.8157 10.0373C10.9143 10.2675 10.945 10.4846 10.9056 10.6885C10.8661 10.8924 10.7543 11.0875 10.5679 11.2739L9.28309 12.5258C9.80929 13.2954 10.5438 14.0387 11.4822 14.7578C12.4206 15.4769 13.3349 15.9681 14.225 16.2312L14.9836 14.6986C15.0823 14.5013 15.2095 14.3675 15.3629 14.2952C15.5164 14.2228 15.7313 14.1987 16.0053 14.2206C16.2904 14.2426 16.5732 14.2535 16.8538 14.2535C17.1345 14.2535 17.4502 14.2426 17.801 14.2206C18.1299 14.1987 18.4083 14.2864 18.632 14.4837C18.8578 14.6811 19.0091 14.999 19.0858 15.4397L19.3489 16.9218C19.3489 16.9218 19.3599 17.0161 19.3818 17.2024C19.3818 17.6629 19.1933 18.0663 18.8139 18.4127C18.4346 18.7591 17.9216 18.9323 17.2748 18.9323H17.2726Z" fill="black"/>
<path d="M12.7867 0C5.73342 0 0 5.73342 0 12.7867C0 19.8401 5.73342 25.5735 12.7867 25.5735C19.8401 25.5735 25.5735 19.8401 25.5735 12.7867C25.5735 5.73342 19.8379 0 12.7867 0ZM12.7867 23.256C7.5554 23.256 3.23177 19.4147 2.45342 14.4004C2.43588 14.2886 2.41615 14.1768 2.403 14.0628C2.38765 13.9356 2.3723 13.8063 2.36134 13.6791C2.33503 13.3831 2.31529 13.0871 2.31529 12.7845C2.31529 12.482 2.33283 12.186 2.36134 11.89C2.3723 11.7606 2.38546 11.6335 2.4008 11.5063C2.41615 11.3923 2.43369 11.2783 2.45342 11.1665C3.23177 6.15439 7.5554 2.31529 12.7867 2.31529C18.0181 2.31529 22.3417 6.15658 23.1201 11.1709C23.1376 11.2827 23.1573 11.3945 23.1705 11.5063C23.1858 11.6335 23.2012 11.7628 23.2121 11.8922C23.2385 12.186 23.2582 12.4842 23.2582 12.7845C23.2582 13.0849 23.2406 13.3831 23.2121 13.6769C23.2012 13.8063 23.188 13.9356 23.1705 14.0628C23.1551 14.1746 23.1376 14.2864 23.1201 14.3982C22.3417 19.4125 18.0181 23.2538 12.7867 23.2538V23.256Z" fill="black"/>
</g>
<defs>
<clipPath id="clip0_44_5333">
<rect width="25.5713" height="25.5713" fill="white"/>
</clipPath>
</defs>
</svg>
