<svg width="78" height="77" viewBox="0 0 78 77" fill="none" xmlns="http://www.w3.org/2000/svg">
<path d="M39.1067 0.268555C17.8073 0.268555 0.749756 17.5066 0.749756 38.6255C0.749756 59.8346 17.8976 76.9824 39.1067 77.0727C60.2256 77.0727 77.4636 60.0151 77.5539 38.7157C77.5539 17.4164 60.4061 0.358806 39.1969 0.358806L39.1067 0.268555ZM59.6841 54.0585C57.4278 54.0585 55.0812 54.0585 52.8249 54.0585C52.4639 54.0585 52.3737 54.0585 52.2834 53.6975C51.2004 50.629 49.3051 48.0117 46.5073 46.2969C45.0633 45.3944 43.4388 44.7626 41.724 44.5821C41.0922 44.5821 41.1825 44.5821 41.1825 45.0334C41.1825 47.9214 41.1825 50.7192 41.1825 53.6073C41.1825 54.239 41.1825 54.1488 40.641 54.1488C37.0309 54.1488 33.6013 53.6975 30.3523 52.2535C25.5689 50.1777 22.2296 46.6579 19.9733 42.055C18.5293 39.0767 17.7171 36.0082 17.2658 32.7591C16.995 31.0444 16.9048 29.3296 16.8145 27.6148C16.8145 27.2538 16.8145 27.1635 17.2658 27.1635C19.4318 27.1635 21.5979 27.1635 23.8542 27.1635C24.2152 27.1635 24.3054 27.1635 24.3054 27.6148C24.3054 30.4126 24.7567 33.2104 25.5689 35.8277C26.4715 38.7157 27.8252 41.4233 30.0815 43.4991C31.2548 44.5821 32.6988 45.4846 34.3234 45.9359V45.3944C34.3234 39.528 34.3234 33.6616 34.3234 27.705C34.3234 27.2538 34.4136 27.1635 34.8649 27.1635C36.8504 27.1635 38.8359 27.1635 40.8215 27.1635C41.1825 27.1635 41.2727 27.2538 41.2727 27.705C41.2727 30.9541 41.2727 34.1129 41.2727 37.362C41.2727 37.9035 41.2727 37.9035 41.724 37.8132C43.529 37.4522 45.0633 36.5497 46.4171 35.3764C48.8539 33.3006 50.4784 30.6833 51.4712 27.6148C51.5614 27.344 51.6517 27.2538 52.0127 27.2538C53.9982 27.2538 56.074 27.2538 58.0595 27.2538C58.601 27.2538 58.601 27.2538 58.4205 27.705C57.6985 31.1346 56.074 34.1129 53.8177 36.64C53.0957 37.4522 52.3737 38.1742 51.6517 38.806C50.8394 39.4378 50.0271 40.0695 49.1246 40.611C49.1246 40.7915 49.2149 40.7915 49.3051 40.7915C54.7202 43.5893 58.24 48.0117 60.0451 53.7878C60.1353 54.0585 60.0451 54.1488 59.7743 54.1488L59.6841 54.0585Z" fill="#0281C9"/>
</svg>
