<svg width="863" height="470" viewBox="0 0 863 470" fill="none" xmlns="http://www.w3.org/2000/svg">
<g style="mix-blend-mode:multiply">
<path d="M362.428 205.586C375.917 158.494 385.04 110.392 397.938 63.071C399.178 58.1159 400.551 54.5712 406.999 56.5234C412.574 58.2736 421.093 58.0381 420.455 66.3514C420.184 69.5074 419.912 72.6635 419.05 75.5908C408.861 112.411 401.883 150.066 388.484 186.05C381.212 205.52 377.125 225.542 372.472 245.618C370.274 255.501 364.785 263.704 361.996 273.358C360.069 280.086 355.138 279.128 349.872 277.634C343.451 275.964 343.105 272.297 344.627 267.315C350.664 246.824 356.391 226.077 362.428 205.586ZM383.87 61.8383C386.458 53.0565 382.214 50.3268 373.12 47.4862C362.87 44.4701 360.341 47.8393 359.032 55.0776C351.096 97.661 344.006 140.164 331.704 181.737C324.55 205.464 319.451 229.851 312.887 253.807C310.151 264.026 315.753 266.058 323.665 268.441C333.35 271.51 332.993 264.714 334.207 259.477C341.52 222.36 349.398 185.189 359.922 148.906C367.981 119.687 375.476 90.5204 384.126 61.5296L383.87 61.8383ZM284.827 243.082C284.044 246.855 280.291 252.332 288.15 254.151C294.545 255.539 299.06 255.113 301.753 247.459C304.165 239.832 306.859 232.179 308.115 224.376C312.883 193.475 319.372 162.697 326.451 132.147C332.748 105.37 337.608 78.4449 340.412 50.8599C341.481 41.0831 334.267 40.057 326.461 38.8021C316.627 37.1697 319.859 44.2636 319.332 47.7283C311.956 96.2352 304.553 144.46 296.841 192.429C292.769 209.604 288.952 226.471 285.109 243.055L284.827 243.082ZM245.538 243.093C244.606 248.303 245.235 251.943 251.885 253.023C257.38 253.927 262.284 254.602 263.62 247.646C265.563 238.071 270.407 229.076 271.759 219.272C274.383 198.819 277.006 178.366 282.532 158.492C292.72 121.672 296.796 83.4377 303.774 45.7828C304.354 42.8821 304.343 39.7527 304.333 36.6233C304.124 28.39 295.685 29.4717 290.137 28.0036C283.46 26.6421 282.651 30.1336 281.693 35.062C272.57 83.1646 267.787 131.996 258.355 179.843C254.065 200.738 250.084 221.889 245.793 242.784L245.538 243.093ZM267.45 34.9843C269.164 26.0003 264.665 23.5794 255.65 21.5849C245.198 19.4417 242.978 23.0664 242.26 30.5334C238.073 73.6165 234.449 116.646 225.64 159.028C220.541 183.414 217.471 208.179 212.936 232.512C211.073 242.933 216.903 244.374 225.044 246.167C234.932 248.363 234.01 241.62 234.66 236.436C238.789 198.766 243.509 161.324 250.823 124.207C256.262 94.3807 261.42 64.5814 267.477 35.2663L267.45 34.9843ZM178.949 222.346C178.476 226.375 175.313 232.081 183.092 233.054C189.434 233.878 194.204 233.143 196.025 225.287C197.845 217.431 199.666 209.576 200.331 201.544C202.506 170.319 206.12 139.243 210.297 108.113C214.001 81.0125 216.806 53.4276 217.043 25.8004C217.266 16.1035 209.823 15.6682 202.07 14.9775C192.034 14.2179 196.086 20.9498 195.868 24.67C192.804 73.6232 189.714 122.294 186.315 170.71C183.989 188.289 181.328 205.331 179.232 222.32L178.949 222.346ZM135.572 227.297C134.922 232.481 136.115 236.068 142.712 236.583C148.436 236.896 153.287 237.007 154.058 230.104C155.128 220.328 159.099 211.13 159.578 201.125C160.481 180.549 161.103 160 164.855 139.441C171.833 101.786 172.187 63.3333 175.726 25.434C175.997 22.278 175.731 19.4573 175.438 16.3545C174.665 8.17457 166.279 9.82035 160.529 9.22512C153.905 8.42779 153.123 12.2013 152.729 17.0764C148.228 65.8808 147.73 114.876 142.638 163.452C140.377 184.725 138.115 205.998 135.854 227.27L135.572 227.297ZM133.636 16.8876C134.758 7.67489 130.03 5.84479 120.531 4.74984C109.877 3.47944 107.966 7.35954 107.812 14.7733C107.629 58.0474 108.292 101.242 103.54 144.378C100.751 169.116 100.247 193.922 98.0232 218.606C97.0335 229.229 103.093 230.08 111.436 231C121.526 232.323 120.04 225.634 120.098 220.221C120.506 182.333 121.787 144.647 125.607 106.721C128.171 76.5972 130.454 46.5003 133.891 16.5789L133.636 16.8876ZM68.1581 212.889C67.9667 216.892 65.3954 222.826 73.4034 223.208C79.9737 223.441 84.4089 222.169 85.6649 214.366C86.8943 206.282 87.8682 198.506 87.6866 190.555C87.0137 159.314 87.7518 127.94 89.0542 96.513C90.4474 69.0614 90.403 41.4609 88.101 14.0737C87.1686 4.20129 80.0871 4.58553 72.1324 4.76767C62.1758 4.8543 66.4837 11.2774 66.83 14.9443C68.3081 63.7532 69.8128 112.844 70.6732 161.142C69.7852 178.87 68.8439 196.034 68.1848 213.172L68.1581 212.889ZM28.9709 220.006C28.886 225.136 30.3611 228.696 36.9048 228.648C42.5753 228.397 47.3992 228.226 47.6064 221.376C47.8028 211.397 51.1832 201.971 50.5329 192.072C49.4347 171.401 48.3632 151.012 50.3958 130.33C53.9074 92.1488 50.8753 54.0163 51.2295 15.564C51.2186 12.4346 50.6434 9.35851 50.377 6.53783C48.7578 -1.56218 40.4519 0.9298 34.7281 0.616645C27.8756 0.410099 27.6575 4.13029 27.5727 9.26082C27.3576 58.2296 31.1198 107.107 30.3404 156.129C30.0809 177.498 29.5392 198.893 29.2797 220.261L28.9709 220.006ZM12.9519 11.2109C13.2282 2.07809 8.24443 0.556708 -1.17449 0.307967C-11.7488 -0.116234 -13.6334 4.04594 -12.9407 11.3797C-9.42911 54.5894 -5.09753 97.4371 -6.40981 140.818C-6.914 165.624 -5.69839 190.553 -5.6382 215.306C-5.78126 225.849 0.506896 226.109 8.79704 226.464C19.0892 226.915 17.0388 220.279 16.5593 215.202C13.836 177.325 11.986 139.65 12.3935 101.761C12.3915 71.5956 12.1073 41.4566 12.9519 11.2109ZM-35.8279 212.181C-35.4549 216.13 -37.7174 222.32 -29.7893 221.856C-23.2723 221.525 -18.8638 219.97 -18.1987 211.939C-17.8159 203.934 -17.1509 195.903 -18.179 188.032C-21.7005 156.776 -23.5022 125.642 -24.7662 94.1722C-25.6572 66.6517 -27.9591 39.2645 -32.5186 12.0905C-34.271 2.5801 -41.608 3.27306 -49.5094 4.01933C-59.3861 4.95216 -54.5405 11.0399 -53.912 14.6802C-48.1743 63.3713 -42.7456 111.807 -37.6256 159.987C-37.1027 177.582 -36.6064 194.895 -35.5723 211.872L-35.8279 212.181ZM721.614 454.539C718.6 458.808 717.536 462.608 723.27 466.05C727.85 469.317 732.067 471.765 736.384 466.235C742.182 458.288 750.451 452.384 755.631 443.927C766.811 426.65 777.656 408.835 790.998 393.345C815.866 364.246 835.511 331.086 857.627 299.97C859.389 297.527 860.816 294.546 861.987 291.874C865.245 284.167 857.024 281.529 852.418 277.98C846.912 273.946 844.612 276.725 841.599 280.994C813.201 320.956 788.429 363.138 759.723 402.845C747.131 420.255 734.514 437.384 721.923 454.794L721.614 454.539ZM828.463 274.55C833.75 267.221 830.81 263.23 823.143 257.409C814.575 251.103 810.811 253.451 807.138 259.774C785.326 297.123 763.823 334.726 738.077 369.601C723.159 389.508 710.067 410.665 695.767 431.083C689.741 439.62 694.373 443.452 701.114 448.507C709.091 454.583 711.353 448.393 714.031 443.587C733.447 411.018 753.481 378.96 775.932 348.381C793.245 323.695 810.532 298.726 828.463 274.55ZM673.089 411.027C670.843 414.37 665.519 418.288 672.462 422.47C677.914 425.939 682.589 427.205 687.418 421.057C692.502 414.601 697.331 408.453 701.234 401.539C716.279 373.936 732.841 347.329 749.713 320.976C764.619 297.94 778.6 274.137 790.472 249.111C794.752 240.169 788.171 236.807 781.254 232.907C772.538 228.038 773.257 235.654 771.575 238.943C748.294 281.838 724.757 325.041 701.141 367.398C691.441 382.258 681.97 396.528 672.807 411.054L673.089 411.027ZM635.935 397.461C633.23 401.985 632.73 405.732 638.438 408.893C643.246 411.569 647.719 413.708 651.419 407.667C656.599 399.209 664.223 392.513 668.812 383.826C678.475 365.554 687.828 347.027 699.626 330.26C722.024 299.117 738.687 264.532 758.077 231.681C759.53 228.982 760.675 226.028 761.564 223.383C764.231 215.447 755.807 213.682 750.946 210.441C745.185 206.716 742.938 210.059 740.489 214.275C715.717 256.456 694.263 300.601 669.182 342.527C658.109 360.932 647.008 379.056 635.935 397.461ZM727.204 209.268C731.873 201.428 728.678 197.746 720.526 192.824C711.448 187.136 708.019 190.021 704.937 196.573C686.133 235.63 668.203 274.888 645.492 311.753C632.4 332.91 621.109 355.036 608.608 376.422C603.199 385.47 608.37 388.966 615.34 393.43C623.827 398.889 625.498 392.471 627.868 387.409C644.584 353.388 661.918 319.877 681.334 287.308C696.539 261.398 711.691 234.923 727.486 209.242L727.204 209.268ZM580.127 355.207C578.189 358.805 573.456 362.951 580.628 366.543C586.309 369.421 590.958 370.405 595.451 363.72C599.944 357.034 604.155 350.376 607.44 342.951C620.094 314.151 633.957 286.091 648.72 258.515C661.518 234.255 673.39 209.229 682.925 183.569C686.332 174.425 679.522 171.653 672.376 168.344C663.175 164.375 664.741 171.911 663.059 175.2C643.659 220.005 624.005 265.118 604.243 309.103C596.034 324.677 587.798 339.968 579.844 355.233L580.127 355.207ZM537.594 344.994C535.199 349.774 534.981 353.494 541.2 356.037C546.264 358.405 550.965 359.953 554.101 353.965C558.381 345.023 565.387 337.816 569.359 328.619C577.248 309.66 584.829 290.446 595.083 272.403C614.446 239.27 627.845 203.285 644.226 168.726C645.397 166.054 646.233 162.845 647.095 159.918C649.171 151.753 640.519 150.578 635.428 147.929C629.438 144.795 627.474 148.111 625.334 152.582C604.47 196.955 587.153 242.701 565.98 286.82C556.707 306.193 547.124 325.312 537.85 344.686L537.594 344.994ZM607.683 146.565C611.761 138.496 608.002 134.867 599.647 130.818C590.084 126.03 586.964 129.17 584.473 135.951C569.525 176.635 555.423 217.24 536.055 256.35C525.072 278.731 515.863 301.798 505.471 324.408C500.962 333.941 506.361 336.846 513.56 340.719C522.532 345.279 523.612 338.631 525.417 333.623C538.869 298.202 552.913 263.01 569.347 229.016C582.134 201.626 594.613 173.981 607.709 146.847L607.683 146.565ZM479.78 308.621C478.406 312.166 473.726 316.877 481.127 319.877C487.038 322.165 491.633 322.585 495.535 315.671C499.411 308.474 503.031 301.587 505.724 293.934C515.732 264.245 527.205 234.988 539.268 205.959C549.958 180.476 559.492 154.816 566.636 127.96C569.169 118.614 562.413 116.406 554.756 113.714C545.326 110.336 547.456 117.819 546.083 121.363C530.821 167.769 515.277 214.202 499.679 260.07C492.961 276.356 485.907 292.106 479.726 308.057L479.78 308.621ZM441.007 302.038C439.202 307.046 439.266 310.74 445.432 312.719C450.725 314.496 455.399 315.762 457.944 309.545C461.633 300.375 467.713 292.401 470.811 283.002C476.928 263.357 483.018 243.43 491.807 224.956C508.188 190.397 518.35 153.295 531.749 117.31C532.894 114.356 533.474 111.455 533.745 108.299C534.975 100.215 526.376 99.6042 521.056 97.5453C514.837 95.0023 513.155 98.2916 511.633 103.273C494.624 149.275 481.417 196.34 464.1 242.086C456.317 262.173 448.79 281.951 441.007 302.038ZM497.432 100.63C500.61 92.0772 496.622 89.0389 488.039 85.5808C478.274 81.6652 475.18 85.0877 473.28 92.0972C461.851 133.872 450.987 175.594 435.165 216.076C426.238 239.117 418.828 263.153 410.209 286.449C406.6 296.466 411.946 298.807 419.629 301.78C429.112 305.723 429.319 298.873 430.815 293.609C441.312 257.045 452.145 221.018 465.598 185.597C476.021 157.293 486.136 128.733 497.15 100.657L497.432 100.63ZM383.602 273.025C382.538 276.825 378.166 281.791 385.797 284.201C391.962 286.18 396.504 286.036 399.815 278.893C403.1 271.468 406.103 264.07 407.95 256.496C415.311 225.92 424.446 196.029 433.863 166.112C442.215 139.996 449.668 113.394 454.501 86.1871C456.161 76.639 449.175 75.0222 441.572 72.8944C431.94 70.3892 434.635 77.8184 433.825 81.3099C422.365 128.779 410.931 176.531 399.136 223.463C393.599 240.207 388.319 256.643 383.32 273.052L383.602 273.025Z" fill="#AB8EB8"/>
</g>
</svg>
