<svg width="1366" height="1839" viewBox="0 0 1366 1839" fill="none" xmlns="http://www.w3.org/2000/svg">
<g clip-path="url(#clip0_9_17280)">
<path d="M-400.559 1604.29C-360.317 1549.12 -340.652 1484.59 -336.236 1416.77C-330.399 1327.88 -327.617 1238.78 -324.125 1149.75C-322.01 1095.54 -317.075 1041.82 -293.991 992.086C-256.341 910.929 -202.996 891.328 -123.168 932.019C-65.375 961.557 -11.5661 958.609 47.7221 933.972C130.669 899.435 180.796 828.666 243.478 771.574C312.257 708.949 318.973 681.134 284.588 595.645C269.367 557.714 254.157 519.681 241.8 480.809C229.766 442.791 222.74 401.897 257.366 371.788C294.227 339.854 339.511 337.066 383.357 354.53C414.2 366.781 442.192 385.917 471.396 402.204C505.457 421.135 538.021 443.708 573.812 458.715C693.367 508.969 784.742 471.186 837.564 352.617C842.867 340.752 849.581 329.133 852.592 316.625C873.829 230.524 927.069 183.647 1016.8 180.241C1022.25 180.076 1027.69 177.963 1033.24 176.885C1128.14 156.885 1222.7 136.235 1298.15 68.4446C1342.93 28.1918 1368.9 -46.9739 1350.21 -86.0775C1326.03 -136.807 1258.76 -165.872 1192.96 -153.787C1181.99 -151.824 1171.08 -149.343 1160.33 -146.435C1055.99 -118.27 953.62 -83.242 850.543 -51.3608C739.639 -17.0959 628.587 -7.65148 515.258 -10.1234C460.125 -11.3064 403.224 -10.2087 350.749 -32.5452C229.095 -84.3447 102.407 -120.869 -23.7601 -159.494C-286.726 -240.076 -530.663 -195.93 -770.262 -68.2154C-904.314 3.26812 -966.567 109.708 -975.602 251.373C-983.724 378.984 -1036.28 478.721 -1132.48 559.065C-1152.41 575.699 -1170.99 594.111 -1189.54 612.32C-1371.24 790.7 -1346.09 1025.93 -1229.54 1197.76C-1191.37 1254 -1144.24 1256.32 -1093.66 1209.38C-1054.63 1173.26 -1029.3 1127.65 -1009.42 1079.24C-984.772 1019.11 -963.751 957.381 -938.897 897.272C-901.315 806.678 -834.081 745.127 -743.654 709.606C-667.959 679.868 -633.917 697.978 -612.087 776.863C-586.368 869.981 -588.772 964.449 -599.812 1059.17C-611.633 1160.58 -629.846 1261.33 -626.73 1364.05C-624.593 1432.94 -616.64 1501.09 -600.811 1568.4C-588.028 1622.28 -554.794 1659.48 -502.342 1668.9C-454.617 1677.43 -425.205 1638.08 -400.559 1604.29ZM169.311 673.031C170.708 646.112 199.009 625.816 225.929 627.213C252.84 628.712 268.375 651.403 266.877 678.312C265.48 705.231 242.375 725.848 215.454 724.451C188.543 722.952 167.812 699.939 169.311 673.031Z" fill="white"/>
</g>
<defs>
<clipPath id="clip0_9_17280">
<rect width="1991.15" height="2568.93" fill="white" transform="translate(-1391 1578.99) rotate(-84.2098)"/>
</clipPath>
</defs>
</svg>
