<svg width="343" height="172" viewBox="0 0 343 172" fill="none" xmlns="http://www.w3.org/2000/svg">
<g clip-path="url(#clip0_11_38754)">
<path d="M96.0845 129.028C95.8063 127.748 95.1387 126.69 94.471 125.577L94.3041 125.298C93.7478 124.352 93.0801 123.294 92.1899 122.515C91.4667 121.903 90.5765 121.625 89.6863 121.402C89.2412 121.291 88.7961 121.179 88.4066 120.957C88.0728 120.79 87.7946 120.678 87.4608 120.511C86.6263 120.066 85.7917 119.676 84.7346 119.454C83.7888 119.287 82.843 119.287 81.7859 119.342C81.4521 119.342 81.1182 119.342 80.7844 119.342C78.5033 119.342 76.5004 119.899 74.8869 120.456L73.9968 120.734C72.4946 121.235 70.9367 121.736 69.6571 122.794C68.0436 124.074 67.0978 125.966 66.3189 127.803C66.152 128.137 65.9851 128.471 65.8182 128.749C65.4287 129.417 65.0392 130.141 64.8723 130.92C64.7611 131.644 64.8723 132.368 65.0392 133.036C65.1505 133.481 65.2062 133.982 65.2062 134.371C65.2062 134.761 65.0392 135.095 64.8167 135.485C64.5385 136.041 63.9822 136.988 65.2062 137.878C66.4858 138.825 67.3203 138.546 68.0993 138.324C68.5444 138.212 68.9895 138.045 69.6571 138.045C70.3247 138.045 70.8255 138.212 71.2706 138.379C72.0495 138.658 72.8284 138.936 74.1637 138.212C75.2764 137.6 74.8869 136.542 74.72 136.041C74.6088 135.763 74.4975 135.485 74.4975 135.206C74.4975 134.093 74.6088 133.091 74.8869 132.201L75.0538 131.533C75.2764 130.698 75.4433 129.918 75.8884 129.473C77.0568 128.304 78.8371 127.692 80.7844 127.692C82.7317 127.692 84.067 128.583 85.1241 129.529C86.0699 130.308 86.4594 131.31 86.4594 132.924V133.203C86.4594 133.982 86.4594 134.65 86.1812 135.262C85.903 135.93 85.4023 136.487 84.9015 137.099L84.679 137.377C84.067 138.101 83.455 138.769 82.6761 139.548C82.231 139.994 81.8972 140.494 81.5077 140.995C81.2295 141.385 80.9513 141.775 80.6175 142.164C80.3393 142.443 80.0611 142.777 79.783 143.055C79.2822 143.556 78.7259 144.113 78.3364 144.725C77.8357 145.393 77.6688 146.228 77.5019 147.063C77.3906 147.452 77.3349 147.842 77.2237 148.232C77.1124 148.621 76.9455 148.955 76.7786 149.345C76.4448 150.18 75.9997 151.071 75.9997 152.128C75.9997 152.406 75.9997 152.573 75.944 152.796C75.8328 153.297 75.6658 154.076 76.7229 154.633C77.8913 155.245 78.5033 155.19 79.3379 155.023C79.7273 154.967 80.0611 154.856 80.6731 154.856C81.2852 154.856 81.7302 154.967 82.0641 155.078C82.3979 155.19 82.7317 155.245 83.1768 155.245C83.6219 155.245 84.067 155.134 84.679 154.856C85.7917 154.355 85.3466 153.353 85.1797 153.019C85.0684 152.796 85.0128 152.629 85.0128 152.462C85.0128 151.238 85.6804 150.124 86.4594 148.844C86.6819 148.51 86.9045 148.12 87.0714 147.786C87.5721 146.84 88.0728 146.005 88.7961 145.337L89.7419 144.447C90.5208 143.723 91.2998 142.999 92.023 142.276C93.3027 140.995 94.2485 139.715 94.9161 138.324C95.695 136.709 96.0845 134.928 96.0845 132.98C96.0845 132.646 96.0845 132.368 96.0845 132.089C96.0845 131.143 96.0845 130.141 95.9176 129.25L96.0845 129.028Z" fill="#E96852"/>
<path d="M80.7844 160.979C79.2266 160.979 78.1139 161.98 77.1124 162.927C75.9997 163.984 75.4989 165.153 75.4989 166.601C75.4989 168.103 75.9997 169.384 76.9455 170.33C78.0026 171.388 79.2822 171.944 80.7288 171.944C82.1753 171.944 83.5106 171.388 84.5121 170.33C85.6248 169.217 86.1812 167.936 86.1812 166.545C86.1812 165.153 85.6248 163.984 84.4564 162.815C83.6775 161.98 82.3979 160.923 80.7288 160.923L80.7844 160.979Z" fill="#E96852"/>
<path d="M0.723284 47.8706C0.723284 48.4829 0.500738 48.9282 0.333828 49.3735C7.9372e-06 50.1528 -0.389449 51.0991 0.778921 52.268C1.55783 53.0473 2.22547 53.2699 2.83748 53.2699C3.33821 53.2699 3.7833 53.1029 4.33967 52.9916C4.67349 52.8803 5.06294 52.769 5.56367 52.6576C6.23131 52.4906 6.67641 52.6576 7.17714 52.8803C7.95605 53.1586 8.90187 53.4926 10.0146 52.435C11.183 51.3217 10.9048 50.3198 10.6266 49.4292C10.4597 48.9838 10.3484 48.5385 10.3484 47.9262C10.3484 46.8686 10.1259 46.312 9.95897 45.811C9.79206 45.3657 9.68079 44.9761 9.68079 44.1968C9.68079 43.4175 9.8477 43.0279 10.0146 42.5826C10.1815 42.0816 10.4041 41.5249 10.4041 40.4673V36.7379C10.4041 35.8473 10.1815 35.235 9.95897 34.8453C9.73642 34.2887 9.68079 34.233 10.1259 33.7321C10.4597 33.3981 10.4597 33.3981 10.9048 33.6207C11.2942 33.8434 11.8506 34.066 12.6852 34.066C13.5754 34.066 14.0761 33.9547 14.4655 33.8434C14.855 33.7321 15.1888 33.6764 15.9677 33.6764C17.1917 33.6764 18.4157 33.5651 19.8067 33.2311C20.1961 33.1754 20.5856 33.1198 20.975 33.0641C21.8652 32.9528 22.811 32.7858 23.6456 32.3961C24.7027 31.8395 25.8154 31.0046 26.8725 30.0026C27.7071 29.2233 28.2078 28.1657 28.6529 27.2194C28.7642 26.9968 28.8754 26.7185 28.9867 26.4958C29.4874 25.4382 29.71 24.3806 29.9325 23.2117L30.0438 22.655C30.0994 22.3211 30.2107 21.9871 30.2664 21.6531C30.4889 20.7625 30.7114 19.8162 30.7114 18.7586C30.7114 17.9237 30.7114 17.534 30.7114 17.1444C30.7114 16.6991 30.7671 16.3094 30.7671 15.4188C30.7671 14.0272 30.6558 12.747 30.3776 11.5224C30.0438 10.0194 29.4318 8.68352 28.9867 7.84857C28.3747 6.7353 27.6514 5.56637 26.65 4.62009C25.9267 3.95213 25.0365 3.56249 24.1463 3.17284C23.8125 3.06152 23.5343 2.89453 23.2005 2.72754C22.9223 2.61621 22.6441 2.44922 22.4216 2.28223C21.587 1.83692 20.6968 1.33595 19.6954 1.16896C18.6383 0.946306 17.4699 0.946306 16.3572 0.946306H15.8565C14.9106 0.946306 14.4099 1.00197 13.9092 1.1133C13.4641 1.16896 13.019 1.22462 12.1844 1.22462C11.3499 1.22462 10.9048 1.1133 10.5153 1.05763C10.0146 0.946306 9.51388 0.834979 8.56805 0.834979C7.67787 0.834979 7.28841 0.834979 6.84332 0.723652C6.39822 0.667989 5.89749 0.612325 4.95167 0.612325C4.3953 0.612325 4.00585 0.500998 3.61639 0.445335C2.89311 0.222681 2.00293 2.74777e-05 0.945831 1.16896C-0.222539 2.39356 0.222555 3.28417 0.612011 3.95213C0.834558 4.39744 1.0571 4.78708 1.0571 5.45504C1.0571 6.40132 1.0571 6.90229 1.0571 7.3476C1.0571 7.84857 1.0571 8.34954 1.0571 9.29582V13.1923C1.0571 14.0829 0.945831 14.4725 0.834558 14.9735C0.723285 15.4745 0.556375 16.0311 0.556375 17.0887C0.556375 18.035 0.556375 18.4803 0.500738 18.9256C0.500738 19.4266 0.445101 19.9275 0.445101 20.9295C0.445101 21.9314 0.445101 22.3767 0.445101 22.8777C0.445101 23.323 0.445101 23.824 0.445101 24.7703C0.445101 25.7722 0.500738 26.2732 0.556375 26.7741C0.612011 27.2194 0.667648 27.7204 0.667648 28.611C0.667648 29.613 0.778921 30.1696 0.834558 30.6706C0.890195 31.1159 1.00147 31.5612 1.00147 32.5075C1.00147 33.4538 0.945831 33.8434 0.834558 34.3444C0.778921 34.8453 0.667648 35.3463 0.667648 36.4039C0.667648 37.4615 0.667648 37.8512 0.667648 38.3521C0.667648 38.8531 0.667648 39.2984 0.667648 40.2447C0.667648 41.191 0.667648 41.6919 0.667648 42.1929C0.667648 42.6939 0.667648 43.1392 0.667648 44.0855C0.667648 45.0317 0.667648 45.5327 0.667648 45.978C0.667648 46.479 0.667648 46.9243 0.667648 47.9262L0.723284 47.8706ZM10.0146 19.3152C10.0146 18.8143 10.0146 18.2576 10.0146 17.2557C10.0146 16.2537 10.0146 15.6971 10.0146 15.1405C10.0146 14.6395 10.0146 14.0829 10.0146 13.0809C10.0146 12.1903 9.73642 11.4667 9.56951 10.9101C9.23569 10.0194 9.18006 9.85246 9.79206 9.40715C10.4041 8.96184 10.8492 8.79485 11.2386 8.79485C11.6281 8.79485 12.0175 8.90618 12.4626 9.12883C13.1859 9.40715 14.0761 9.68546 15.3557 9.68546C15.6895 9.68546 16.0234 9.68546 16.4128 9.68546C17.3586 9.68546 18.2488 9.6298 18.8608 9.90812C19.8067 10.3534 20.6412 11.2997 21.1419 12.413C21.5314 13.3036 21.7539 14.5838 21.7539 15.9198C21.7539 16.2537 21.6983 16.4207 21.587 16.6434C21.4201 16.9217 21.2532 17.3114 21.2532 17.9793C21.2532 19.3709 20.9194 20.4842 20.5856 21.4861C20.1405 22.7664 19.5841 23.49 18.6939 23.991C17.8037 24.4919 16.7466 24.9929 15.4114 24.9929C14.1317 24.9929 13.1859 25.3269 12.4626 25.6052C11.4055 25.9949 10.8492 26.2175 9.68079 25.3826C9.12442 24.9929 9.12442 24.8259 9.56951 23.824C9.8477 23.2117 10.1259 22.4324 10.1259 21.4861C10.1259 20.4285 10.1259 19.9275 10.1259 19.3709L10.0146 19.3152Z" fill="#E96852"/>
<path d="M62.7582 47.7036C62.5913 46.7573 62.48 46.312 62.3687 45.811C62.2574 45.31 62.1462 44.8091 61.9236 43.8071C61.7567 42.9165 61.7567 42.4712 61.8123 42.0259C61.8123 41.5249 61.868 40.9126 61.6454 39.855C61.4229 38.8531 61.256 38.3521 61.1447 37.8511C60.9778 37.4058 60.8665 36.9605 60.644 36.0142C60.4214 35.0123 60.2545 34.5113 60.0876 34.0103C59.9207 33.565 59.7538 33.1197 59.5869 32.2291C59.3643 31.2828 59.3087 30.7819 59.1974 30.2809C59.0861 29.7799 58.9749 29.3346 58.808 28.3883C58.6411 27.5534 58.6967 27.1081 58.6967 26.6071C58.6967 26.1061 58.808 25.4938 58.5854 24.4362C58.3629 23.4343 58.196 22.9333 58.0291 22.4324C57.8621 21.987 57.7509 21.5417 57.5283 20.5955C57.3058 19.5935 57.1389 19.0925 56.972 18.5916C56.805 18.1463 56.6381 17.701 56.4712 16.8103C56.3043 15.9197 56.2487 15.4744 56.2487 14.9735C56.2487 14.4725 56.2487 13.9158 56.0261 12.9139C55.8036 11.912 55.6367 11.411 55.4698 10.91C55.3029 10.4647 55.1359 10.0194 54.969 9.12879C54.7465 8.18252 54.6352 7.68154 54.5239 7.18057C54.4127 6.73527 54.3014 6.23429 54.0788 5.28802C53.9676 4.67572 54.0788 4.23041 54.0788 3.7851C54.2458 3.00582 54.357 2.17086 53.133 1.16892C51.8534 0.16698 51.0745 0.500961 50.2956 0.779278C49.8505 0.946269 49.461 1.11326 48.7934 1.11326C47.7919 1.11326 47.3468 1.11326 46.8461 1.0576C46.3454 1.0576 45.8446 1.00193 44.7875 1.00193C44.1199 1.00193 43.7304 0.890605 43.341 0.779278C42.4508 0.500961 41.7831 0.389634 40.5591 1.33591C39.3908 2.28219 39.2795 2.95015 39.2795 3.95209C39.2795 4.34174 39.2795 4.73138 39.1682 5.34368C38.9457 6.28996 38.8344 6.79093 38.7231 7.2919C38.6119 7.79287 38.5006 8.23818 38.278 9.24012C38.0555 10.2421 37.9999 10.743 37.9442 11.244C37.8886 11.745 37.7773 12.1903 37.6104 13.1366C37.3878 14.1385 37.3878 14.6951 37.3878 15.2518C37.3878 15.7527 37.3878 16.198 37.1653 17.0887C36.9984 17.9793 36.7758 18.4246 36.6089 18.8142C36.3864 19.3152 36.1638 19.8162 35.9969 20.8181C35.7744 21.7644 35.6631 22.2654 35.5518 22.7107C35.4406 23.2116 35.3293 23.6569 35.1067 24.6589C34.8842 25.6608 34.8286 26.1618 34.7729 26.6628C34.7729 27.1081 34.6617 27.6091 34.4947 28.5553C34.2722 29.5573 34.2166 30.0582 34.2166 30.5592C34.2166 31.0602 34.1053 31.5055 33.9384 32.4518C33.7158 33.4537 33.6602 33.9547 33.6602 34.4557C33.6602 34.901 33.5489 35.4019 33.382 36.3482C33.1595 37.2945 33.0482 37.7398 32.8813 38.1851C32.7144 38.6861 32.5475 39.1314 32.3806 40.1333C32.2136 41.0239 31.9911 41.4136 31.8242 41.8589C31.6016 42.3599 31.3791 42.8608 31.1565 43.8628C30.934 44.8091 30.8227 45.31 30.7114 45.7553C30.6002 46.2563 30.4889 46.7016 30.2664 47.7036C30.1551 48.3158 29.8769 48.7612 29.5987 49.2065C29.098 50.0414 28.5416 51.099 29.5987 52.3793C30.2107 53.0472 30.7671 53.3256 31.2678 53.3256C31.8242 53.3256 32.3249 53.0472 32.8256 52.8246C33.2707 52.6019 33.8271 52.3236 34.4947 52.1566C35.1624 51.9896 35.5518 52.1566 36.0526 52.4349C36.7202 52.7689 37.666 53.2142 38.8344 52.268C40.114 51.266 40.0028 50.4311 39.8915 49.5404C39.8915 49.0951 39.7802 48.6498 39.8915 48.0375C40.0584 47.0913 40.1697 46.6459 40.281 46.2006C40.3922 45.7553 40.5035 45.2544 40.726 44.3081C40.893 43.3618 40.726 42.6382 40.5591 42.0815C40.3366 41.3579 40.281 41.1353 40.8373 40.69C41.505 40.189 41.7831 40.3003 42.4508 40.5786C43.0072 40.8013 43.6748 41.0796 44.6206 41.0796C45.6777 41.0796 46.2341 40.9683 46.7904 40.9126C47.2912 40.8013 47.7363 40.7456 48.6821 40.7456C49.4054 40.7456 49.9061 40.69 50.2956 40.5786C51.0745 40.4673 51.297 40.4116 52.1316 41.0796C52.7436 41.5806 52.6879 41.7476 52.6323 42.3599C52.5767 42.8052 52.4654 43.4731 52.6323 44.3081C52.7992 45.2544 52.9661 45.7553 53.0774 46.2006C53.1887 46.6459 53.2999 47.1469 53.4668 48.0375C53.5781 48.6498 53.4668 49.1508 53.4112 49.6518C53.2443 50.4867 53.0218 51.5443 54.3014 52.4906C55.581 53.4925 56.5269 53.0472 57.3614 52.6576C57.8621 52.4349 58.3629 52.1566 59.0305 52.1566C59.6981 52.1566 60.1432 52.3793 60.5883 52.5463C61.3672 52.8802 62.3131 53.2699 63.4258 51.934C64.5385 50.598 63.9265 49.7074 63.4258 49.0951C63.1476 48.7055 62.8694 48.3158 62.7582 47.7036Z" fill="#E96852"/>
<path d="M74.8313 36.0699C75.1095 35.3463 75.4433 34.3443 74.2749 33.4537C72.9953 32.4518 72.0495 32.8971 71.2705 33.2311C70.8255 33.4537 70.3247 33.6764 69.6571 33.6764C68.9894 33.6764 68.5443 33.4537 68.0993 33.2867C67.376 32.9528 66.4302 32.5631 65.2061 33.6764C64.0378 34.734 64.3716 35.6803 64.6498 36.4039C64.8167 36.7935 64.9836 37.2388 64.9836 37.7955C64.9836 38.2408 64.9836 38.6304 64.928 39.0757C64.928 39.7994 64.8167 40.5786 64.928 41.3579C65.0949 42.2485 65.4843 43.0278 65.8181 43.7515C65.9851 44.0854 66.0963 44.3638 66.2632 44.6977C67.0422 46.5903 67.9323 48.4828 69.4345 49.7074C70.7698 50.8207 72.3833 51.3217 73.9967 51.8227L74.4975 51.9896C76.1109 52.4906 78.1695 53.0472 80.6175 53.0472C82.6204 53.0472 84.5121 53.0473 86.2368 52.4906C87.739 51.9896 88.7961 50.9877 89.8532 50.0414C90.1314 49.7631 90.4095 49.5405 90.6877 49.3178L91.0216 49.0395C92.3012 47.9819 93.7478 46.7573 94.471 44.8091C94.7492 44.0854 94.8048 43.3061 94.8605 42.5269C94.8605 42.0816 94.8605 41.6919 94.9718 41.2466C95.0274 40.857 95.1943 40.4673 95.3056 40.022C95.5281 39.354 95.7507 38.5748 95.7507 37.7398C95.7507 37.2945 95.695 37.0718 95.5838 36.7935C95.5838 36.6822 95.5281 36.5709 95.4725 36.5152C95.4725 35.5133 95.2499 34.567 94.9718 33.732C94.8605 33.3981 94.8049 33.1197 94.7492 32.7858C94.4154 31.3385 94.0259 30.1696 93.4696 29.1676C92.9132 28.1657 92.2456 27.2194 91.4667 26.4401C90.9103 25.8835 90.187 25.2712 89.4081 24.7146C90.2983 24.0466 91.2441 23.2117 91.8005 22.321C92.5794 21.1521 93.0801 19.9275 93.4696 18.4246C93.5252 18.1463 93.6365 17.868 93.6921 17.5896C93.9703 16.5877 94.2485 15.4744 94.2485 14.2498C94.2485 13.8045 93.9147 13.5819 93.6365 13.4149C93.6365 13.1922 93.6365 12.9696 93.6365 12.7469C93.6365 12.079 93.6921 11.3553 93.5808 10.6317C93.5808 10.2977 93.4696 9.96376 93.4696 9.62978C93.4139 8.90615 93.3027 8.18253 93.0245 7.4589C92.3012 5.789 91.1328 4.28609 89.6863 3.17282C88.5179 2.2822 87.127 1.89256 85.8473 1.50292L85.0684 1.28026C83.455 0.779291 81.8415 0.27832 79.9499 0.27832C78.0582 0.27832 76.1109 0.612301 74.3862 1.2246C72.3833 1.94822 70.8811 2.78317 69.6571 3.84078C68.1549 5.1767 67.2647 7.0136 66.5971 8.6835C66.4858 9.01748 66.2632 9.35146 66.0963 9.62978C65.7625 10.2421 65.3731 10.9657 65.2061 11.745C65.0949 12.4686 65.2061 13.1366 65.3731 13.8045C65.4843 14.2498 65.5956 14.6951 65.5956 15.1405C65.5956 15.4744 65.4287 15.7528 65.2061 16.0867C64.928 16.532 64.316 17.5896 65.4843 18.3133C66.8196 19.1482 67.6542 18.7586 68.3774 18.4246C68.8225 18.2019 69.2676 18.035 69.9353 18.035C70.6029 18.035 71.048 18.2576 71.5487 18.4803C72.272 18.8142 73.1066 19.2039 74.4418 18.4803C75.5546 17.868 75.2764 16.866 75.0538 16.2537C74.9426 15.9754 74.8869 15.6971 74.8869 15.3631C74.8869 13.0809 74.8869 11.077 75.7215 10.1864C76.5004 9.35146 77.8913 8.96182 79.8942 8.96182C81.1182 8.96182 82.7873 9.24013 83.7332 10.5761C84.2895 11.3553 84.2895 12.6913 84.2895 14.3612V14.9735C84.2895 15.4188 84.6233 15.6414 84.9015 15.7528C84.8459 17.9236 84.067 19.4265 83.455 20.3172C82.6761 21.4304 81.6746 21.9871 80.4506 21.9871C79.7273 21.9871 79.2822 21.8201 78.8928 21.6531C77.9469 21.3191 77.2237 21.1521 75.9997 22.2097C74.8313 23.2117 75.0538 23.9353 75.4433 24.7702C75.6102 25.1599 75.7771 25.5495 75.7771 26.1061C75.7771 26.6628 75.5546 27.1638 75.2764 27.6091C74.8869 28.3327 74.3306 29.446 75.6102 30.4479C77.0011 31.5612 78.0026 31.1159 78.8371 30.7262C79.3935 30.5036 79.8942 30.2809 80.6731 30.2809C82.3979 30.2809 83.7332 30.8375 84.5677 32.0065C85.4579 33.1754 85.903 34.7896 85.9586 36.6822C85.7917 36.7935 85.5692 37.0718 85.5692 37.4615C85.5692 38.6861 85.5692 39.5767 85.3466 40.4117C85.1241 41.4136 84.9015 42.3042 84.3452 42.8608C83.3437 43.9741 81.8971 44.5864 80.1168 44.5864C78.3364 44.5864 76.8342 44.0298 75.7771 42.9165C75.1095 42.2485 74.6087 41.3579 74.3862 40.4673C74.2749 40.022 74.3306 39.4097 74.3862 38.7417C74.3862 38.3521 74.4418 37.9068 74.4418 37.5172C74.4418 37.0718 74.6087 36.6822 74.72 36.2926L74.8313 36.0699Z" fill="#E96852"/>
<path d="M131.024 18.3133C131.024 17.0887 130.802 15.9754 130.579 14.9178C130.468 14.4725 130.412 14.0828 130.357 13.6375L130.245 12.9696C130.023 11.578 129.856 10.2421 129.355 9.01748L129.021 8.23819C128.521 6.95793 128.02 5.67767 127.13 4.67573C126.406 3.84078 125.461 3.45113 124.515 3.00583C124.125 2.83884 123.736 2.67185 123.402 2.44919C123.18 2.33786 122.901 2.17087 122.679 2.00388C121.733 1.44725 120.787 0.890616 119.563 0.612298C118.117 0.278318 116.781 0.0556641 115.335 0.0556641C114.055 0.0556641 112.831 0.333981 111.774 0.556635L111.106 0.723625C110.828 0.779289 110.494 0.834952 110.216 0.890616C109.103 1.11327 107.935 1.33592 106.934 1.89256C105.821 2.50486 104.764 3.45113 103.595 4.73139C102.65 5.789 101.871 7.12492 101.092 8.96181C100.535 10.2977 99.9234 11.8006 99.6452 13.4706C99.4783 14.4168 99.5896 15.4188 99.6452 16.4207C99.6452 17.033 99.7565 17.5896 99.7565 18.2576C99.7565 19.2595 99.7009 19.7605 99.6452 20.2615C99.5896 20.8181 99.4783 21.3748 99.4783 22.4324C99.4783 23.49 99.534 24.0466 99.5896 24.6032C99.6452 25.1042 99.7009 25.6052 99.7009 26.6071C99.7009 27.6647 99.7009 28.2214 99.8122 28.778C99.8122 29.279 99.9234 29.7799 99.9234 30.7819C99.9234 31.7838 99.9234 32.3405 99.9234 32.8971C99.9234 33.3981 99.9234 33.9547 99.9234 34.9566V35.4576C99.9234 36.9049 99.9234 38.2964 100.146 39.6324C100.424 41.4136 100.814 42.8608 101.37 44.1968C101.537 44.6421 101.704 45.0874 101.871 45.5327C102.26 46.646 102.65 47.7592 103.429 48.6498C104.207 49.5405 105.265 50.0414 106.266 50.5981C106.544 50.7651 106.878 50.8764 107.156 51.0434L107.434 51.2104C108.547 51.8227 109.715 52.4906 111.106 52.8246C111.663 52.9359 112.275 52.9916 112.831 52.9916C113.221 52.9916 113.666 52.9916 114.111 52.9916C114.556 52.9916 114.945 52.9916 115.39 52.9916H115.724C117.06 52.9916 118.339 52.9916 119.563 52.7133C120.843 52.435 121.9 51.8227 122.901 51.266L123.402 50.9877C124.515 50.3197 125.516 49.5405 126.629 48.3159C127.686 47.1469 128.632 45.978 129.3 44.4194C129.8 43.1392 130.19 41.6919 130.468 39.855C130.691 38.4078 130.802 36.8492 130.802 35.1793C130.802 34.1773 130.802 33.6764 130.913 33.1197C130.913 32.5631 131.024 32.0621 131.024 30.9489C131.024 29.8356 131.024 29.3346 131.024 28.8337C131.024 28.3327 131.024 27.7761 131.024 26.7741C131.024 25.8278 131.136 25.3269 131.191 24.8259C131.303 24.2693 131.414 23.7126 131.414 22.5994C131.414 21.4861 131.303 20.9295 131.247 20.4285C131.191 19.9275 131.08 19.4265 131.08 18.4803L131.024 18.3133ZM121.51 24.7146C121.622 25.2155 121.733 25.6608 121.733 26.6628C121.733 27.6647 121.677 28.1657 121.622 28.6667C121.566 29.2233 121.51 29.7799 121.51 30.8375C121.51 31.8951 121.622 32.5074 121.677 33.0084C121.733 33.5094 121.844 34.0104 121.844 34.9566C121.844 36.3482 121.622 37.5172 121.399 38.6304V38.8531C121.065 40.356 120.843 41.6919 120.286 42.4155C119.174 43.8071 117.393 44.6421 115.39 44.6421C113.61 44.6421 112.108 43.8071 110.828 42.1372C110.272 41.4136 109.604 40.356 109.326 38.8531C109.215 38.1851 109.27 37.4615 109.326 36.6265C109.326 36.1256 109.382 35.5133 109.382 34.9566C109.382 33.899 109.382 33.3424 109.382 32.8414C109.382 32.3405 109.382 31.8395 109.382 30.7819C109.382 29.7243 109.382 29.1676 109.382 28.6667C109.382 28.1657 109.382 27.6647 109.382 26.6071C109.382 25.5495 109.382 25.1042 109.493 24.6032C109.493 24.0466 109.604 23.5456 109.604 22.4324C109.604 21.3191 109.493 20.7625 109.382 20.2058C109.27 19.7049 109.159 19.2595 109.159 18.2576C109.159 17.2 109.382 16.1981 109.549 15.2518C109.604 14.9735 109.66 14.6395 109.715 14.3612C109.994 12.8583 110.272 11.6337 110.828 10.8544C111.997 9.40712 113.666 8.57217 115.613 8.57217C117.783 8.57217 119.563 9.35146 120.62 10.6874C121.121 11.3553 121.566 12.5799 121.9 14.3055C122.067 15.3631 122.178 16.6434 122.178 18.2576C122.178 19.2039 122.067 19.6492 121.9 20.1502C121.733 20.7068 121.566 21.3191 121.566 22.4324C121.566 23.5456 121.677 24.1023 121.789 24.6589L121.51 24.7146Z" fill="#E96852"/>
<path d="M167.967 39.7437C168.134 38.5191 168.357 36.8492 168.357 35.0123C168.357 34.6227 168.468 34.2887 168.579 33.9547C168.802 33.2867 169.135 32.2291 167.967 31.4499C166.687 30.5592 165.797 31.0045 165.018 31.3385C164.518 31.5612 164.073 31.7838 163.405 31.7838C162.737 31.7838 162.292 31.6168 161.903 31.5055C161.124 31.2272 160.345 30.9489 159.065 31.8395C157.674 32.7858 158.008 33.7877 158.398 34.8453L158.509 35.235C158.509 35.7359 158.509 36.2369 158.509 36.6822C158.509 37.5172 158.62 38.2965 158.509 38.9644C158.231 40.4673 157.786 41.6363 157.174 42.4155C156.228 43.6401 154.67 44.2524 152.389 44.2524C149.83 44.2524 148.272 43.7515 147.382 42.5825C146.936 42.0259 146.77 41.024 146.603 39.9107C146.603 39.5767 146.491 39.2427 146.436 38.9644C146.213 37.8511 146.213 36.5709 146.213 35.068C146.213 33.9547 146.158 33.3981 146.046 32.8971C145.991 32.3961 145.879 31.8952 145.879 30.8932C145.879 29.8913 145.991 29.446 146.102 28.945C146.213 28.3884 146.324 27.8317 146.324 26.7185C146.324 25.6052 146.102 24.9372 145.935 24.4363C145.768 23.9353 145.601 23.49 145.601 22.5994C145.601 21.5974 145.657 21.1521 145.768 20.5955C145.824 20.0388 145.935 19.4822 145.935 18.4246C145.935 17.2 146.158 16.0867 146.324 15.1405L146.491 14.1385C146.714 12.8026 146.936 11.6893 147.437 11.0214C148.383 9.85244 149.885 9.2958 152.278 9.2958C154.67 9.2958 156.061 9.85244 157.007 11.1327C157.507 11.745 158.119 12.8583 158.453 14.5282C158.676 15.6414 158.676 17.033 158.676 18.4246C158.676 18.6473 158.564 18.9256 158.453 19.1482C158.286 19.5379 157.786 20.5398 158.954 21.1521C160.289 21.8201 161.068 21.4861 161.736 21.1521C162.181 20.9295 162.626 20.7625 163.294 20.7625C163.961 20.7625 164.406 20.9295 164.796 21.0408C165.463 21.2634 166.187 21.4861 167.522 20.8738C167.689 20.8181 168.078 20.5955 168.245 20.1502C168.357 19.7049 168.134 19.3152 167.967 19.0926C167.856 18.8699 167.745 18.7029 167.745 18.4803V17.3113C167.745 16.0867 167.745 14.9178 167.633 13.7489C167.578 13.3036 167.522 12.9139 167.466 12.4686C167.299 11.244 167.188 10.0751 166.743 9.01749C166.131 7.45891 165.018 6.28998 164.073 5.23238L163.906 5.06539C163.071 4.11911 162.07 3.56247 161.068 3.0615L159.955 2.4492C158.898 1.83691 157.841 1.22461 156.506 0.946292C155.449 0.723638 154.336 0.723638 153.223 0.723638H152.278C151.721 0.723638 151.165 0.667974 150.608 0.556648C149.718 0.445321 148.828 0.27833 147.938 0.500984C146.77 0.779301 145.712 1.3916 144.767 1.94823C144.488 2.11522 144.266 2.28221 143.988 2.39354C143.709 2.56053 143.487 2.67186 143.209 2.83885C142.207 3.39548 141.15 3.95212 140.316 4.84273C139.314 5.956 138.424 7.40325 137.756 9.07315C137.2 10.4091 136.811 11.9677 136.532 13.7489C136.365 14.6952 136.477 15.6414 136.532 16.6434C136.532 17.2557 136.644 17.868 136.644 18.4803C136.644 19.4265 136.532 19.9275 136.421 20.4285C136.31 20.9851 136.199 21.5418 136.199 22.655C136.199 23.7683 136.31 24.3249 136.365 24.8816C136.477 25.3825 136.532 25.8835 136.532 26.8854C136.532 27.9431 136.532 28.444 136.532 29.0007C136.532 29.5016 136.532 30.0583 136.532 31.0602C136.532 32.0621 136.532 32.5631 136.421 33.0641C136.421 33.6207 136.31 34.1217 136.31 35.235C136.31 36.4596 136.532 37.5728 136.755 38.6861C136.811 39.1314 136.922 39.521 136.977 39.9107C137.033 40.3003 137.089 40.7456 137.144 41.1353C137.311 42.3599 137.478 43.5288 137.923 44.5864C138.591 46.145 139.648 47.4253 140.649 48.5385C141.595 49.6518 142.708 50.2641 144.099 51.0434C145.323 51.7113 146.603 52.2123 148.049 52.5463C148.439 52.6019 148.828 52.7689 149.218 52.8803C150.163 53.1586 151.109 53.4369 152.222 53.4369C153.335 53.4369 154.336 53.1586 155.282 52.8803C155.671 52.7689 156.061 52.6576 156.395 52.602C157.674 52.3236 159.121 51.9897 160.4 51.266C161.569 50.5981 162.626 49.7631 163.683 48.5385L164.184 48.0376C165.074 47.0356 166.02 46.0337 166.576 44.6977C167.133 43.3062 167.578 41.7476 167.856 40.022L167.967 39.7437Z" fill="#E96852"/>
<path d="M171.583 52.4907C172.029 52.6576 172.362 52.3793 172.529 52.2123C172.529 52.2123 172.696 52.101 172.641 52.101H173.253C174.532 52.101 175.756 52.101 176.813 51.8227C178.482 51.3774 179.595 50.4311 180.43 49.5405C181.431 48.4829 182.433 47.314 182.989 45.4771C183.434 44.0855 183.823 42.5826 184.046 40.857C184.046 40.523 184.157 40.1334 184.213 39.6881C184.324 38.8531 184.435 37.9068 184.491 36.9049C184.491 36.1813 184.547 35.3463 184.602 34.5114L184.714 31.5612C184.714 30.7263 184.769 29.8356 184.825 28.945C184.825 28.3884 184.881 27.7761 184.936 27.1638C184.936 26.4402 185.047 25.7165 185.047 24.9373C185.047 24.2693 185.047 23.6013 185.047 22.9334C185.047 22.2654 185.047 21.5975 185.047 20.9295C185.047 20.2059 184.936 19.5379 184.769 18.8699C184.658 18.202 184.491 17.5897 184.491 16.9774C184.491 16.4208 184.602 15.8085 184.769 15.1962C184.936 14.4725 185.047 13.7489 185.103 12.9696C185.103 12.3017 184.992 11.5224 184.936 10.7987C184.881 10.2978 184.825 9.74114 184.769 9.24017C185.214 9.18451 185.548 9.24017 185.938 9.46283C186.438 9.68548 187.05 9.90813 187.996 9.90813C188.942 9.90813 189.443 9.90813 189.944 9.90813C190.444 9.90813 190.889 9.90813 191.835 9.90813C192.725 9.90813 193.393 9.62982 193.894 9.40716C194.561 9.12885 194.728 9.01752 195.229 9.51849C195.73 10.0195 195.674 10.1865 195.34 10.8544C195.118 11.3554 194.84 12.0233 194.84 12.9696C194.84 13.9716 194.84 14.4725 194.951 15.0292C194.951 15.4745 195.062 15.9754 195.062 16.9217C195.062 17.9237 195.062 18.4246 195.062 18.9256C195.062 19.4266 195.062 19.8719 195.062 20.8182C195.062 21.7088 194.951 22.0984 194.84 22.5994C194.728 23.1004 194.561 23.657 194.561 24.7146C194.561 25.7722 194.784 26.3845 194.951 26.8855C195.118 27.3308 195.229 27.7204 195.229 28.611C195.229 29.5017 195.173 29.947 195.062 30.4479C194.951 30.9489 194.895 31.5055 194.895 32.5075C194.895 33.3981 194.84 33.8434 194.728 34.3444C194.673 34.8454 194.561 35.3463 194.561 36.4039V40.3004C194.561 41.358 194.673 41.8589 194.784 42.3599C194.895 42.8052 194.951 43.2505 194.951 44.1411C194.951 45.0318 194.951 45.5327 194.84 46.0337C194.84 46.5347 194.728 47.0356 194.728 48.0376C194.728 48.6499 194.617 49.0395 194.506 49.4292C194.283 50.3754 194.172 51.0991 195.285 52.1567C196.509 53.3256 197.343 52.936 198.066 52.602C198.456 52.435 198.901 52.2123 199.569 52.2123C200.236 52.2123 200.681 52.435 201.126 52.6576C201.516 52.8246 201.961 53.0473 202.462 53.0473C202.907 53.0473 203.408 52.8803 204.02 52.3237C205.244 51.1547 205.021 50.2641 204.799 49.4292C204.687 49.0395 204.576 48.5942 204.576 48.0376C204.576 46.9243 204.353 46.3677 204.187 45.8667C204.02 45.4214 203.908 45.0318 203.908 44.1411C203.908 43.2505 204.02 42.8052 204.131 42.3599C204.242 41.8589 204.353 41.3023 204.353 40.2447C204.353 39.2984 204.353 38.7975 204.353 38.3521C204.353 37.8512 204.353 37.4059 204.353 36.4039C204.353 35.402 204.353 34.9567 204.353 34.4557C204.353 33.9547 204.353 33.5094 204.353 32.5631C204.353 31.5612 204.298 31.0046 204.187 30.5036C204.131 30.0583 204.02 29.613 204.02 28.6667C204.02 27.7204 204.02 27.2751 204.131 26.8298C204.186 26.3288 204.242 25.8279 204.242 24.8259C204.242 23.824 204.186 23.323 204.131 22.822C204.075 22.3767 204.02 21.8758 204.02 20.9852C204.02 20.0945 204.131 19.7049 204.242 19.2039C204.353 18.703 204.52 18.1463 204.52 17.0887C204.52 16.1424 204.52 15.6415 204.52 15.1962C204.52 14.6952 204.52 14.2499 204.52 13.2479C204.52 12.246 204.52 11.8564 204.52 11.3554C204.52 10.8544 204.52 10.3534 204.52 9.40716C204.52 8.46089 204.465 7.90425 204.353 7.40328C204.298 6.95797 204.242 6.51267 204.242 5.56639C204.242 4.95409 204.353 4.56445 204.465 4.1748C204.687 3.39551 204.91 2.56056 203.797 1.39163C202.629 0.222698 201.794 0.389688 200.96 0.556679C200.57 0.612342 200.181 0.723669 199.624 0.723669C198.567 0.723669 198.011 0.890659 197.51 1.00199C197.065 1.11331 196.62 1.22464 195.785 1.22464C194.951 1.22464 194.45 1.11331 194.005 1.05765C193.504 0.946323 193.004 0.834996 191.946 0.834996C190.889 0.834996 190.389 0.946323 189.888 1.05765C189.443 1.16898 188.998 1.22464 188.108 1.22464C187.217 1.22464 186.828 1.11331 186.327 1.00199C185.826 0.890659 185.27 0.779332 184.269 0.779332C183.267 0.779332 182.655 0.946323 182.154 1.05765C181.709 1.16898 181.264 1.2803 180.43 1.2803C179.762 1.2803 179.317 1.05765 178.927 0.890659C178.26 0.556679 177.537 0.222698 176.257 0.668005C175.979 0.779332 175.812 1.05765 175.812 1.33597C175.812 2.00393 175.812 2.78322 175.867 3.5625C175.867 4.28613 175.923 5.00975 175.923 5.62205C175.923 6.29001 175.867 6.95797 175.812 7.57027C175.756 8.23823 175.701 8.90619 175.701 9.51849C175.701 10.2421 175.867 10.9657 175.979 11.6894C176.09 12.3017 176.201 12.914 176.201 13.4149C176.201 14.1386 176.201 14.8065 176.201 15.4745C176.201 16.0868 176.201 16.6991 176.201 17.3114C176.201 17.9237 176.034 18.5916 175.923 19.2596C175.756 19.9276 175.645 20.5955 175.645 21.2078C175.645 21.9871 175.756 22.7107 175.923 23.4343C176.034 24.0466 176.146 24.6033 176.146 25.1043C176.146 25.7722 176.034 26.4402 175.867 27.1081C175.756 27.7204 175.645 28.3327 175.645 28.945C175.645 29.7243 175.756 30.4479 175.867 31.1159C175.979 31.7282 176.034 32.2848 176.034 32.7858C176.034 33.5651 175.867 34.2887 175.756 34.9567C175.645 35.5133 175.534 36.0699 175.534 36.5709C175.478 37.4059 175.534 38.1295 175.534 38.7418C175.534 39.4098 175.534 39.9664 175.478 40.3004C175.2 41.525 174.922 42.6382 174.477 43.1949C174.198 43.5845 173.308 43.5288 172.418 43.5288H172.084C171.806 43.5288 171.472 43.6958 171.361 43.9742C171.305 44.1411 171.361 44.3638 171.361 44.5308C171.305 45.1987 171.194 45.5327 171.027 45.9224C170.86 46.4233 170.693 46.98 170.693 48.0376C170.693 48.4829 170.693 48.8169 170.693 49.0952C170.693 50.0415 170.693 50.4868 171.027 51.934C171.138 52.3793 171.417 52.4907 171.583 52.5463V52.4907Z" fill="#E96852"/>
<path d="M252.368 49.9857C253.369 48.9281 253.87 47.3139 254.426 45.477C254.705 44.5307 254.816 43.4174 254.927 42.3041C254.927 41.8032 255.038 41.3022 255.094 40.8012C255.094 40.3559 255.261 39.9106 255.372 39.4097C255.539 38.686 255.762 37.8511 255.817 36.9048C255.817 36.4038 255.929 35.9029 255.984 35.3462C256.04 34.5669 256.151 33.7876 256.207 32.9527C256.207 32.2847 256.207 31.6168 256.096 30.9488C256.04 30.2808 255.929 29.6129 255.984 28.9449C255.984 28.3883 256.096 27.8317 256.207 27.2194C256.318 26.4957 256.485 25.7721 256.485 24.9928C256.485 24.3249 256.485 23.6569 256.374 22.9889C256.374 22.321 256.262 21.653 256.262 20.9851C256.262 20.3171 256.207 19.5935 256.096 18.9812C256.04 18.3132 255.929 17.6453 255.929 17.033C255.929 16.4207 255.929 15.8084 255.929 15.1961C255.929 14.4724 255.929 13.7488 255.929 13.0252C255.929 12.4129 255.984 11.8563 256.096 11.2996C256.151 10.7986 256.207 10.2977 256.262 9.74104C256.874 9.57405 257.153 9.62972 257.653 9.74104C258.043 9.79671 258.544 9.90803 259.378 9.90803C260.38 9.90803 260.88 9.85237 261.381 9.79671C261.826 9.74104 262.327 9.68538 263.217 9.68538C263.996 9.68538 264.608 9.51839 265.053 9.3514C265.721 9.12875 265.888 9.12875 266.444 9.68538C267.056 10.2977 267 10.5203 266.833 11.1883C266.722 11.6336 266.555 12.1902 266.555 12.9695C266.555 13.8601 266.444 14.2498 266.277 14.7508C266.11 15.2517 265.943 15.8084 265.943 16.9216C265.943 17.9236 265.943 18.4245 265.943 18.9255C265.943 19.4265 265.943 19.8718 265.943 20.8181C265.943 21.8757 266.11 22.4323 266.221 22.9333C266.333 23.3786 266.444 23.8239 266.444 24.7145C266.444 25.6051 266.333 25.9948 266.221 26.4401C266.055 26.941 265.943 27.4977 265.943 28.5553C265.943 29.5572 265.943 30.0582 265.999 30.5592C265.999 31.0045 266.055 31.5054 266.055 32.4517C266.055 33.4537 266.055 33.9546 266.166 34.4556C266.166 34.9009 266.221 35.4019 266.221 36.3482V40.2446C266.221 41.1909 266.221 41.6919 266.221 42.1372C266.221 42.6381 266.221 43.1391 266.221 44.0854C266.221 45.0317 266.221 45.5326 266.221 45.9779C266.221 46.4789 266.221 46.9799 266.221 47.9818C266.221 48.5941 266.11 49.0394 265.999 49.4291C265.776 50.264 265.498 51.1546 266.722 52.3236C267.891 53.4925 268.836 53.1029 269.615 52.7689C270.06 52.6019 270.505 52.3792 271.173 52.3792C271.841 52.3792 272.286 52.6019 272.731 52.7689C273.12 52.9359 273.565 53.1029 274.011 53.1029C274.456 53.1029 275.012 52.9359 275.624 52.3236C276.792 51.1546 276.514 50.264 276.236 49.4291C276.069 48.9838 275.958 48.5385 275.958 47.9262C275.958 46.8685 275.791 46.3119 275.68 45.8109C275.568 45.3656 275.457 44.9203 275.457 44.0297C275.457 43.1391 275.624 42.8051 275.791 42.3598C275.958 41.8588 276.18 41.2465 276.18 40.1889C276.18 39.187 276.18 38.686 276.125 38.1851C276.125 37.7397 276.069 37.2388 276.069 36.2925C276.069 35.2349 275.902 34.6783 275.791 34.1773C275.68 33.732 275.568 33.2867 275.568 32.4517C275.568 31.5054 275.568 31.0045 275.568 30.5592C275.568 30.0582 275.568 29.6129 275.568 28.6109C275.568 27.7203 275.68 27.275 275.735 26.8297C275.847 26.3287 275.958 25.7721 275.958 24.7702C275.958 23.8239 275.958 23.3786 276.013 22.8776C276.013 22.3766 276.069 21.8757 276.069 20.9294C276.069 19.8718 275.958 19.3152 275.791 18.8142C275.68 18.3689 275.568 17.9236 275.568 17.033C275.568 16.031 275.568 15.53 275.457 15.0291C275.457 14.5838 275.346 14.0828 275.346 13.1922C275.346 12.3016 275.346 11.8006 275.346 11.2996C275.346 10.7986 275.346 10.2977 275.346 9.3514C275.346 8.51645 275.457 8.07114 275.624 7.62583C275.791 7.12486 275.958 6.56823 275.958 5.51062C275.958 4.89833 276.125 4.39735 276.292 3.95205C276.57 3.06143 276.904 2.05949 275.735 0.890558C274.567 -0.278374 273.565 0.0556064 272.675 0.389587C272.23 0.556577 271.729 0.723568 271.117 0.723568C270.116 0.723568 269.615 0.723568 269.115 0.834894C268.669 0.834894 268.169 0.946221 267.279 0.946221H263.44C262.382 0.946221 261.826 1.11321 261.325 1.22454C260.88 1.33587 260.435 1.44719 259.545 1.44719C258.655 1.44719 258.21 1.39153 257.765 1.2802C257.264 1.16887 256.763 1.11321 255.706 1.11321C254.76 1.11321 254.315 1.11321 253.87 1.05755C253.369 1.05755 252.869 1.00188 251.923 1.00188C251.311 1.00188 250.866 1.00188 250.532 0.890558C249.753 0.779231 249.141 0.723568 247.861 1.16887C247.583 1.2802 247.416 1.55852 247.416 1.83684C247.416 2.5048 247.416 3.17276 247.305 3.78506C247.305 4.45302 247.194 5.06532 247.194 5.73328C247.194 6.4569 247.305 7.18053 247.472 7.90415C247.583 8.51645 247.694 9.12875 247.694 9.68538C247.694 10.3533 247.694 11.077 247.639 11.7449C247.639 12.3572 247.583 12.9695 247.583 13.5818C247.583 14.2498 247.528 14.9177 247.472 15.53C247.416 16.198 247.361 16.8103 247.361 17.4783C247.361 18.2019 247.361 18.9255 247.472 19.5935C247.472 20.2058 247.583 20.8181 247.583 21.3747C247.583 22.0983 247.583 22.7663 247.583 23.4899C247.583 24.1022 247.583 24.7145 247.583 25.2711C247.583 25.9391 247.416 26.6071 247.305 27.275C247.194 27.8873 247.027 28.4996 247.027 29.1119C247.027 29.8912 246.971 30.6705 246.916 31.3385C246.916 31.8951 246.86 32.3961 246.804 32.897C246.804 33.732 246.86 34.4556 246.971 35.1236C247.027 35.6802 247.138 36.2368 247.082 36.6821C247.027 37.8511 246.693 38.7417 246.47 39.4097C246.359 39.7436 246.248 40.0219 246.192 40.2446V40.3559C245.914 41.5249 245.692 42.4155 245.246 42.9721C244.913 43.4174 244.356 43.5287 243.243 43.5287C242.743 43.5287 242.298 43.9184 242.242 44.4194C242.131 45.8109 242.131 46.2006 242.131 47.0912V48.1488C242.131 48.8168 242.019 49.2621 241.908 49.6517C241.908 49.8187 241.797 50.097 241.797 50.264C241.63 49.93 241.463 49.5961 241.241 49.3734C240.907 48.9281 240.573 48.4271 240.406 47.8148C240.183 46.8686 240.128 46.3676 240.072 45.8666C240.017 45.3656 239.905 44.8647 239.738 43.9184C239.516 42.9164 239.349 42.4155 239.182 41.9145C239.015 41.4692 238.848 41.0239 238.681 40.0776C238.514 39.187 238.459 38.7417 238.459 38.2407C238.459 37.7397 238.459 37.1831 238.236 36.1255C238.014 35.1792 237.958 34.6783 237.902 34.233C237.847 33.732 237.735 33.231 237.513 32.2847C237.29 31.2271 237.068 30.7262 236.845 30.2808C236.678 29.8355 236.456 29.4459 236.289 28.5553C236.066 27.5533 236.011 27.108 235.899 26.6071C235.788 26.1618 235.677 25.6608 235.51 24.7145C235.343 23.8239 235.343 23.3786 235.343 22.8776C235.343 22.3766 235.343 21.7643 235.176 20.7624C234.954 19.8161 234.898 19.3152 234.787 18.8142C234.675 18.3132 234.62 17.8679 234.397 16.9216C234.23 15.9753 234.119 15.53 234.063 15.0291C234.008 14.5281 233.897 14.0271 233.73 13.0252C233.507 12.0232 233.396 11.5779 233.285 11.077C233.173 10.6317 233.006 10.1307 232.839 9.18441C232.673 8.23813 232.561 7.79282 232.506 7.29185C232.45 6.79088 232.339 6.28991 232.172 5.28797C232.061 4.787 232.061 4.34169 232.005 4.00771C231.949 3.00577 231.838 2.33781 230.558 1.33587C229.39 0.389587 228.667 0.556577 227.776 0.890558C227.387 1.05755 226.942 1.16887 226.274 1.16887C225.328 1.16887 224.828 1.16887 224.327 1.11321C223.826 1.11321 223.326 1.05755 222.268 1.05755C221.601 1.05755 221.156 0.890558 220.711 0.723568C219.932 0.389587 219.042 0.0556064 217.762 1.11321C216.482 2.11515 216.649 3.06143 216.816 3.89638C216.927 4.34169 216.983 4.84266 216.816 5.51062C216.594 6.4569 216.482 6.90221 216.315 7.40318C216.148 7.90415 216.037 8.40512 215.815 9.3514C215.592 10.2977 215.481 10.7986 215.37 11.244C215.258 11.7449 215.147 12.1902 214.924 13.1922C214.702 14.1941 214.702 14.7508 214.646 15.2517C214.646 15.7527 214.591 16.198 214.368 17.1443C214.146 18.1462 214.09 18.6472 214.034 19.1482C213.979 19.5935 213.923 20.0944 213.7 21.0407L212.922 24.8815C212.699 25.8834 212.588 26.3287 212.476 26.8297C212.365 27.275 212.254 27.776 212.031 28.7223C211.864 29.6686 211.698 30.0582 211.531 30.5592C211.364 31.0601 211.197 31.5611 210.974 32.563C210.752 33.5093 210.64 33.9546 210.474 34.3999C210.307 34.9009 210.14 35.3462 209.917 36.3482C209.695 37.2944 209.639 37.7954 209.528 38.2964C209.416 38.7974 209.361 39.2427 209.138 40.1889C208.916 41.1909 208.916 41.6919 208.86 42.2485C208.86 42.7495 208.804 43.1948 208.582 44.0854C208.359 45.0317 208.248 45.477 208.137 45.9779C208.025 46.4789 207.914 46.9242 207.692 47.9262C207.58 48.5385 207.302 48.9838 207.024 49.3734C206.523 50.1527 205.911 51.0433 207.024 52.3792C208.248 53.8265 209.305 53.4368 210.307 52.9915C210.752 52.8245 211.197 52.6019 211.809 52.4906C212.476 52.3236 212.922 52.5462 213.478 52.8245C214.201 53.1585 215.203 53.6595 216.371 52.7132C217.595 51.7113 217.428 50.7093 217.317 49.8744C217.206 49.3734 217.15 48.8724 217.317 48.2601C217.484 47.2582 217.539 46.7572 217.595 46.2563C217.595 45.811 217.651 45.31 217.873 44.4194C218.04 43.6401 217.984 43.0278 217.929 42.5825C217.873 41.9145 217.873 41.6919 218.541 41.1352C219.153 40.6342 219.32 40.7456 219.932 41.0239C220.432 41.2465 221.1 41.5805 222.102 41.5805C223.214 41.5805 223.826 41.3579 224.327 41.1909C224.828 41.0239 225.217 40.9126 226.163 40.9126C226.886 40.9126 227.443 40.8012 227.832 40.7456C228.555 40.6343 228.834 40.5786 229.668 41.1909C230.336 41.6919 230.28 41.8588 230.225 42.5825C230.225 43.0278 230.113 43.6401 230.225 44.4194C230.391 45.4213 230.558 45.9223 230.725 46.3676C230.892 46.8129 231.003 47.2582 231.17 48.1488C231.282 48.7611 231.17 49.2621 231.059 49.7074C230.892 50.4867 230.614 51.433 231.894 52.4349C233.173 53.4368 234.063 53.0472 234.787 52.7132C235.232 52.4906 235.677 52.3236 236.345 52.3236C237.012 52.3236 237.569 52.6019 238.069 52.8802C238.514 53.1029 239.071 53.3812 239.683 53.3812C240.183 53.3812 240.74 53.1585 241.241 52.5462C241.463 52.2679 241.574 52.0453 241.63 51.8226C241.63 51.9339 241.63 51.9896 241.63 52.1009C241.853 53.0472 242.91 52.8802 243.243 52.7689C243.355 52.7689 243.466 52.7689 243.577 52.7689C245.079 52.7689 246.526 52.6019 247.861 52.2122C249.697 51.7113 251.033 51.0433 251.867 50.1527L252.368 49.9857ZM221.935 25.0485C222.102 24.1022 222.268 23.6012 222.38 23.1559C222.547 22.655 222.658 22.154 222.88 21.0964C223.047 20.0944 223.159 19.5935 223.27 19.0925C223.381 18.5915 223.492 18.0906 223.659 17.0886C223.882 16.031 223.882 15.4744 223.938 14.9734C223.938 14.4724 223.993 13.9715 224.16 13.0252C224.327 12.1902 224.16 11.3553 224.104 10.6317C224.049 10.242 223.938 9.51839 224.049 9.40706C224.049 9.40706 224.104 9.40706 224.383 9.40706C224.716 9.40706 224.828 9.40706 224.828 9.51839C224.939 9.68538 224.828 10.3533 224.828 10.7986C224.772 11.5223 224.661 12.3016 224.828 13.1365C225.05 14.1385 225.106 14.6951 225.217 15.1961C225.273 15.697 225.384 16.198 225.551 17.1999C225.718 18.1462 225.774 18.6472 225.829 19.1482C225.829 19.6491 225.885 20.2058 226.107 21.2634C226.274 22.2097 226.33 22.7106 226.386 23.2116C226.386 23.7126 226.441 24.2692 226.664 25.3268C226.886 26.3287 226.998 26.8297 227.109 27.3307C227.22 27.8317 227.331 28.3326 227.498 29.3346C227.665 30.2808 228.166 30.9488 228.555 31.4498C229.112 32.1734 229.112 32.2847 228.722 32.73C228.055 33.4537 227.776 33.3423 226.886 33.0084C226.274 32.7857 225.551 32.5074 224.494 32.5074C223.437 32.5074 222.769 32.7857 222.157 33.0084C221.323 33.3423 221.044 33.4537 220.377 32.73C219.765 32.1177 219.82 32.0064 220.377 31.1158C220.655 30.7262 220.989 30.2252 221.267 29.5572C221.823 28.3326 221.823 27.6647 221.768 26.9967C221.768 26.5514 221.768 26.1061 221.879 25.3268L221.935 25.0485Z" fill="#E96852"/>
<path d="M97.5867 75.5353C97.5867 73.9767 97.4754 72.3625 97.1972 70.8039C96.9747 69.468 96.474 68.2991 96.0289 67.2971C95.862 66.9632 95.7507 66.6292 95.6394 66.3509C95.0831 64.9593 94.4154 63.345 93.3027 62.1204C92.4681 61.1742 91.4667 60.6732 90.4652 60.1165L89.4081 59.5042C88.351 58.8919 87.2939 58.2797 85.9586 58.0013C84.5121 57.6674 83.1212 57.556 81.7303 57.556C80.3393 57.556 79.0597 57.8343 77.8913 58.1127L77.2237 58.2797C75.8884 58.558 74.6644 58.8363 73.496 59.5042C72.3277 60.1722 71.4375 61.1742 70.6029 62.1204L70.3804 62.3987C70.1022 62.6771 69.824 62.9554 69.5458 63.2337C68.7113 64.0686 67.8211 64.9593 67.3204 66.1839C66.9309 67.1301 66.8196 68.2434 66.764 69.301C66.764 69.8576 66.6527 70.4143 66.5971 70.9709C66.3745 72.4182 66.3745 73.9767 66.3745 75.6466C66.3745 76.6486 66.3189 77.1496 66.2076 77.6505C66.152 78.2072 66.0407 78.7638 66.0407 79.8214C66.0407 80.879 66.0407 81.4356 66.152 81.9923C66.152 82.4932 66.2633 82.9942 66.2633 83.9962C66.2633 85.0538 66.2633 85.6104 66.3745 86.167C66.3745 86.668 66.4858 87.169 66.4858 88.1709C66.4858 89.1172 66.3745 89.5625 66.2076 90.0635C66.0407 90.5644 65.9294 91.1767 65.9294 92.3457V93.4033C65.9294 94.6835 65.9294 95.9081 66.0964 97.0771C66.3189 98.4687 66.8753 99.7489 67.3204 100.807L67.6542 101.586C68.3218 103.2 69.3233 104.369 70.3804 105.538C71.3262 106.596 72.272 107.653 73.5517 108.377C74.6088 108.933 75.7215 109.212 76.8899 109.434L77.6131 109.601C78.0582 109.713 78.5033 109.88 78.9484 110.047C79.783 110.325 80.7288 110.715 81.7859 110.715C82.843 110.715 83.8444 110.381 84.679 110.102C85.1241 109.935 85.5692 109.824 85.9586 109.713C87.5165 109.379 88.7961 108.933 89.9088 108.265C91.0772 107.597 92.1343 106.763 93.1914 105.594L93.247 105.538C94.2485 104.425 95.3056 103.256 95.9176 101.641C96.3627 100.584 96.474 99.4706 96.6409 98.3017C96.6409 97.8564 96.7521 97.411 96.8078 96.9657V96.5761C97.086 95.2402 97.3085 93.8486 97.3085 92.29V88.1153C97.3085 87.0576 97.3085 86.5567 97.3085 86C97.3085 85.4434 97.3085 84.9424 97.3085 83.8848C97.3085 82.9386 97.4198 82.4376 97.5311 81.9366C97.6423 81.38 97.7536 80.8233 97.7536 79.7101C97.7536 78.5968 97.7536 78.0958 97.698 77.5949C97.698 77.0939 97.698 76.5929 97.698 75.5353H97.5867Z" fill="#E96852"/>
<path d="M128.131 62.51C128.131 61.9534 128.298 61.5081 128.465 61.1184C128.743 60.4504 129.188 59.5598 128.02 58.5022C126.796 57.389 125.906 57.7786 125.238 58.1126C124.793 58.3352 124.404 58.5022 123.736 58.5022C122.734 58.5022 122.289 58.5022 121.789 58.5022C121.288 58.5022 120.787 58.5022 119.786 58.5022C118.84 58.5022 118.395 58.4466 117.894 58.3352C117.393 58.2796 116.837 58.1682 115.78 58.1682C114.834 58.1682 114.333 58.1682 113.888 58.0569C113.387 58.0569 112.887 57.9456 111.83 57.9456C110.773 57.9456 110.327 57.9456 109.827 58.0013C109.326 58.0013 108.881 58.0569 107.935 58.0569C106.989 58.0569 106.489 58.0569 106.043 57.9456C105.543 57.9456 105.042 57.8343 103.985 57.8343C103.373 57.8343 102.928 57.7229 102.483 57.556C101.648 57.3333 100.758 57.055 99.534 58.1682C98.3656 59.2815 98.5881 60.1721 98.8663 61.0071C98.9776 61.3967 99.0889 61.842 99.0889 62.3987C99.0889 62.9553 98.922 63.4006 98.8107 63.8459C98.5325 64.6809 98.1987 65.7385 99.534 66.7404C101.203 67.965 102.149 67.631 103.317 67.2414C103.818 67.0744 104.374 66.8517 105.098 66.7404C105.821 66.5734 106.433 66.4064 106.878 66.2394C107.991 65.8498 108.436 65.6828 109.493 66.5734C109.994 66.9631 109.938 67.0744 109.604 67.8537C109.326 68.4103 109.048 69.0783 109.048 70.0246C109.048 71.0265 109.048 71.5275 109.048 72.0284C109.048 72.5294 109.048 72.9747 109.048 73.9767C109.048 75.0343 109.159 75.5352 109.27 76.0919C109.382 76.5372 109.437 76.9825 109.437 77.9288V81.8252C109.437 82.7715 109.437 83.2168 109.382 83.7178C109.382 84.2187 109.27 84.7197 109.27 85.7216C109.27 86.6679 109.215 87.1132 109.159 87.5585C109.103 88.0595 108.992 88.5605 108.992 89.6181C108.992 90.6757 109.103 91.1767 109.215 91.6776C109.326 92.1229 109.382 92.5682 109.382 93.5145C109.382 94.5165 109.382 94.9618 109.382 95.4627C109.382 95.9637 109.382 96.409 109.382 97.411C109.382 98.3016 109.27 98.7469 109.159 99.1922C109.048 99.6932 108.937 100.25 108.937 101.307C108.937 102.365 108.992 102.866 109.103 103.367C109.159 103.812 109.215 104.313 109.215 105.204C109.215 105.816 109.048 106.261 108.825 106.707C108.491 107.486 108.158 108.377 109.326 109.546C109.994 110.214 110.55 110.381 111.051 110.381C111.496 110.381 111.83 110.269 112.219 110.158C112.664 109.991 113.109 109.88 113.721 109.88C114.333 109.88 114.778 109.991 115.168 110.102C116.114 110.381 116.893 110.492 118.005 109.434C119.118 108.321 119.062 107.597 118.84 106.595C118.784 106.206 118.673 105.816 118.673 105.204C118.673 104.146 118.562 103.59 118.45 103.089C118.339 102.643 118.284 102.198 118.284 101.307C118.284 100.417 118.339 99.9158 118.45 99.4705C118.562 98.9695 118.617 98.4686 118.617 97.411C118.617 96.4647 118.617 96.0194 118.729 95.5184C118.729 95.0174 118.84 94.5165 118.84 93.5145C118.84 92.4013 118.617 91.8446 118.45 91.3437C118.284 90.8983 118.117 90.5087 118.117 89.6738C118.117 88.8388 118.228 88.3935 118.395 87.9482C118.562 87.4472 118.729 86.8906 118.729 85.833C118.729 84.7754 118.617 84.2744 118.506 83.7178C118.395 83.2725 118.284 82.8271 118.284 81.9365C118.284 80.9903 118.284 80.4893 118.284 80.044C118.284 79.543 118.284 79.042 118.284 78.0958C118.284 77.2051 118.395 76.7598 118.506 76.3145C118.617 75.8136 118.729 75.2569 118.729 74.1993C118.729 73.1417 118.562 72.5851 118.45 72.0841C118.339 71.6388 118.228 71.1935 118.228 70.3029C118.228 69.4123 117.95 68.7443 117.783 68.1877C117.449 67.297 117.393 67.0744 117.95 66.6847C118.784 66.0168 119.174 66.1838 120.008 66.6291C120.676 66.9074 121.455 67.2971 122.623 67.2971C123.402 67.2971 123.958 67.4084 124.404 67.5197C125.405 67.7424 126.24 67.9093 127.742 66.7404C129.077 65.7385 128.632 64.7922 128.298 64.1242C128.131 63.7346 127.909 63.3449 127.909 62.7327L128.131 62.51Z" fill="#E96852"/>
<path d="M161.958 106.206C161.513 105.816 161.012 105.371 160.734 104.814C160.234 103.868 159.955 103.367 159.677 102.922C159.399 102.476 159.176 102.031 158.676 101.085C158.175 100.083 157.786 99.6376 157.452 99.1923C157.118 98.8026 156.84 98.413 156.339 97.5224C155.894 96.6318 155.727 96.1865 155.616 95.6855C155.449 95.1289 155.282 94.5722 154.781 93.5703C154.28 92.5683 153.891 92.123 153.557 91.6777C153.223 91.2881 152.945 90.8984 152.444 90.0078C151.944 89.0615 151.721 88.6162 151.499 88.1709C151.276 87.67 151.054 87.2247 150.553 86.2784C150.108 85.4434 149.663 84.9981 149.273 84.6085C148.772 84.0518 148.494 83.7735 148.494 82.7716C148.494 81.9923 148.717 81.8253 149.329 81.4357C149.83 81.1017 150.442 80.6564 150.942 79.8214C151.443 78.8751 151.61 78.3185 151.721 77.8175C151.832 77.3166 151.944 76.9269 152.389 76.1476C152.834 75.3127 153.112 74.8674 153.335 74.4777C153.557 74.0324 153.835 73.6428 154.28 72.7522C154.726 71.9172 155.004 71.4719 155.226 71.0823C155.504 70.637 155.727 70.2473 156.228 69.3567C156.673 68.5774 156.951 68.1878 157.229 67.8538C157.563 67.4641 157.897 67.0188 158.398 66.1282C158.843 65.2933 159.121 64.8479 159.343 64.4583C159.566 64.0687 159.844 63.6234 160.289 62.7884C160.567 62.2874 160.901 61.9535 161.235 61.6195C161.847 61.0072 162.682 60.2279 161.569 58.725C160.456 57.2221 159.399 57.6117 158.62 57.9457C158.119 58.1127 157.674 58.3353 156.951 58.3353C156.228 58.3353 155.727 58.224 155.338 58.1127C154.392 57.89 153.724 57.7787 152.389 58.558C151.054 59.3373 150.775 59.8939 150.442 60.7845C150.33 61.1185 150.163 61.5081 149.941 62.0091C149.44 62.9554 149.329 63.4564 149.162 63.9573C149.051 64.4026 148.939 64.848 148.494 65.6829C148.105 66.4622 147.771 66.7962 147.493 67.1858C147.159 67.5755 146.77 68.0208 146.269 68.967C145.824 69.9133 145.657 70.4143 145.49 70.9153C145.379 71.3606 145.212 71.8059 144.822 72.5852C144.377 73.4201 144.155 73.8098 143.876 74.2551C143.598 74.7004 143.376 75.09 142.931 75.9806C142.485 76.8713 142.263 77.3166 141.985 77.7619C141.762 78.1515 141.54 78.5968 141.095 79.4318C140.705 80.2111 140.594 81.1573 140.538 81.881C140.538 82.2706 140.427 82.8829 140.427 82.9942C140.427 82.9942 140.371 82.9942 140.149 82.9942C139.648 82.8272 139.537 82.7716 139.982 81.4913C140.204 80.8234 140.427 80.0997 140.427 79.2648C140.427 78.3185 140.538 77.9289 140.705 77.4279C140.872 76.9269 141.039 76.3146 141.039 75.2014C141.039 74.0881 140.928 73.5871 140.816 73.0305C140.705 72.5295 140.594 72.0842 140.594 71.1379C140.594 70.136 140.594 69.635 140.594 69.134C140.594 68.6331 140.594 68.0764 140.594 67.0745C140.594 66.0725 140.594 65.5716 140.594 65.0706C140.594 64.5696 140.594 64.0687 140.594 63.0667C140.594 62.4544 140.705 62.0091 140.872 61.6195C141.15 60.6732 141.261 59.9496 140.204 58.8363C139.092 57.723 138.368 57.7787 137.367 57.9457C136.977 58.0013 136.588 58.1127 135.976 58.1127C135.364 58.1127 134.863 57.9457 134.363 57.7787C133.472 57.5004 132.471 57.1664 131.303 58.3353C130.134 59.5043 130.635 60.5619 130.969 61.3412C131.191 61.8421 131.414 62.2874 131.414 62.9554C131.414 63.846 131.303 64.2357 131.191 64.681C131.024 65.1819 130.913 65.7386 130.913 66.7962C130.913 67.8538 131.024 68.3547 131.136 68.8557C131.247 69.301 131.303 69.7463 131.303 70.6369C131.303 71.5832 131.303 72.0842 131.303 72.5852C131.303 73.0861 131.303 73.5314 131.303 74.4777C131.303 75.3683 131.191 75.8136 131.136 76.259C131.024 76.7599 130.913 77.3166 130.913 78.3185C130.913 79.3204 131.024 79.8771 131.08 80.378C131.136 80.8234 131.247 81.2687 131.247 82.1593C131.247 83.1612 131.358 83.7179 131.414 84.2188C131.469 84.6641 131.581 85.1094 131.581 86.0001C131.581 86.9463 131.581 87.4473 131.581 87.9483C131.581 88.4492 131.581 88.8946 131.581 89.8408C131.581 90.7314 131.525 91.1768 131.414 91.6777C131.358 92.1787 131.247 92.6797 131.247 93.6816C131.247 94.6279 131.247 95.0732 131.191 95.5742C131.191 96.0751 131.136 96.5761 131.136 97.5224C131.136 98.413 131.08 98.8583 130.969 99.3593C130.913 99.8603 130.802 100.361 130.802 101.419C130.802 102.476 130.969 103.033 131.136 103.534C131.303 103.979 131.414 104.369 131.414 105.204C131.414 105.816 131.136 106.317 130.913 106.763C130.524 107.542 129.967 108.544 131.191 109.713C132.415 110.882 133.361 110.548 134.251 110.214C134.696 110.047 135.197 109.88 135.865 109.88C136.532 109.88 136.922 109.991 137.311 110.102C138.313 110.325 139.036 110.436 140.149 109.323C141.317 108.098 140.928 107.208 140.649 106.54C140.483 106.095 140.26 105.705 140.26 105.037C140.26 104.146 140.427 103.701 140.594 103.256C140.761 102.755 140.983 102.142 140.983 100.974C140.983 99.8046 140.872 99.3593 140.761 98.8026C140.649 98.3017 140.538 97.8564 140.538 96.9101C140.538 95.9081 140.538 95.4072 140.538 94.9062C140.538 94.4052 140.538 93.9043 140.538 92.9023C140.538 91.9004 140.538 91.3437 140.427 90.8428C140.427 90.3418 140.316 89.8965 140.316 88.8946C140.316 88.0596 140.037 87.2803 139.871 86.668C139.759 86.2784 139.537 85.7217 139.648 85.6104C139.648 85.6104 139.759 85.4991 140.037 85.3878C140.149 85.3878 140.26 85.3878 140.26 85.3321C140.316 85.4991 140.371 85.9444 140.371 86.2784C140.371 87.002 140.427 87.9483 140.872 88.7276C141.317 89.6182 141.595 90.0635 141.873 90.4531C142.152 90.8428 142.374 91.2324 142.819 92.123C143.209 92.958 143.376 93.3476 143.487 93.8486C143.654 94.3496 143.765 94.8505 144.266 95.7968C144.711 96.7431 145.045 97.1327 145.379 97.5781C145.657 97.9677 145.935 98.3017 146.324 99.1366C146.769 100.083 147.103 100.473 147.437 100.862C147.715 101.252 147.994 101.586 148.439 102.365C148.828 103.144 148.939 103.534 148.995 104.035C149.106 104.536 149.218 105.093 149.718 106.039C149.996 106.596 150.108 107.041 150.163 107.43C150.33 108.21 150.497 109.045 151.832 109.768C153.502 110.659 154.225 110.492 155.504 110.158C155.95 110.047 156.45 109.935 157.118 109.824C157.952 109.657 158.564 109.991 159.176 110.269C159.622 110.436 160.122 110.659 160.679 110.659C161.235 110.659 161.847 110.436 162.459 109.601C163.627 107.987 162.57 107.041 161.791 106.373L161.958 106.206Z" fill="#E96852"/>
<path d="M194.283 68.8L194.172 68.1877C193.949 67.0744 193.727 66.0725 193.226 65.1262C193.059 64.8479 192.948 64.5139 192.781 64.2356C192.336 63.345 191.946 62.4544 191.168 61.7308C190.222 60.8401 188.998 60.1722 187.829 59.6155C187.05 59.2259 186.16 59.1702 185.326 59.0589C184.881 59.0589 184.436 59.0032 183.99 58.8919C183.601 58.8363 183.267 58.7249 182.878 58.6136C182.043 58.3909 181.209 58.1683 180.263 58.1683C179.373 58.1683 178.927 58.1683 178.538 58.057C178.037 58.0013 177.592 57.9456 176.646 57.9456C175.701 57.9456 175.144 58.057 174.699 58.1683C174.254 58.2796 173.865 58.3353 173.03 58.3353C172.14 58.3353 171.695 58.3353 171.25 58.3353C170.805 58.3353 170.304 58.3353 169.414 58.3353C168.857 58.3353 168.468 58.1683 168.078 58.057C167.355 57.7787 166.521 57.5003 165.408 58.6693C164.351 59.7825 164.406 60.5062 164.629 61.5081C164.684 61.8977 164.796 62.2874 164.796 62.8997C164.796 63.9016 164.796 64.3469 164.796 64.8479C164.796 65.3489 164.796 65.7942 164.796 66.7405C164.796 67.6867 164.796 68.1877 164.796 68.6887C164.796 69.1897 164.796 69.635 164.796 70.5812C164.796 71.5275 164.796 72.0285 164.796 72.5295C164.796 73.0304 164.796 73.4757 164.796 74.422C164.796 75.424 164.851 75.9806 164.963 76.4816C165.018 76.9269 165.13 77.3722 165.13 78.3185C165.13 79.2647 165.13 79.7657 165.13 80.2667C165.13 80.7676 165.13 81.213 165.13 82.1592C165.13 83.1055 165.13 83.6621 165.185 84.1074C165.185 84.5528 165.241 85.0537 165.241 86C165.241 86.835 165.13 87.2246 164.963 87.7256C164.796 88.2265 164.629 88.7832 164.629 89.8408C164.629 90.8427 164.629 91.3437 164.684 91.789C164.684 92.2343 164.74 92.7353 164.74 93.6816C164.74 94.6278 164.74 95.0175 164.629 95.5185C164.573 96.0194 164.518 96.5204 164.518 97.5223C164.518 98.5243 164.518 98.9696 164.518 99.4149C164.518 99.9159 164.518 100.361 164.518 101.363C164.518 102.365 164.518 102.81 164.518 103.311C164.518 103.757 164.518 104.258 164.518 105.204C164.518 105.761 164.406 106.206 164.295 106.651C164.072 107.542 163.85 108.432 165.018 109.546C165.742 110.269 166.354 110.492 166.91 110.492C167.355 110.492 167.856 110.325 168.301 110.158C168.69 110.047 169.135 109.88 169.692 109.768C170.359 109.601 170.805 109.824 171.305 110.047C172.029 110.381 173.03 110.77 174.143 109.713C175.311 108.599 174.922 107.597 174.588 106.818C174.365 106.373 174.198 105.872 174.198 105.315C174.198 104.369 174.198 103.868 174.198 103.423C174.198 102.977 174.198 102.476 174.198 101.586C174.198 100.695 174.198 100.25 174.31 99.8045C174.365 99.3036 174.421 98.8026 174.421 97.8563C174.421 96.9657 174.421 96.5204 174.477 96.0751C174.477 95.5741 174.532 95.1288 174.532 94.1269C174.532 93.2363 174.31 92.6796 174.087 92.2343C173.865 91.6777 173.809 91.5664 174.31 91.0654C174.588 90.7314 174.588 90.7314 175.089 90.9541C175.478 91.121 176.034 91.3994 176.869 91.3994C177.759 91.3994 178.26 91.288 178.705 91.1767C179.094 91.0654 179.428 91.0097 180.207 91.0097H180.93C181.987 91.0097 183.045 91.0097 184.213 90.7871C185.437 90.5087 186.717 90.2304 187.829 89.6738C188.664 89.2285 189.276 88.5049 189.888 87.8369C190.166 87.5029 190.389 87.2246 190.667 86.9463L190.889 86.7236C191.78 85.8887 192.614 85.0537 193.226 83.8848C193.782 82.8272 194.394 81.5469 194.728 80.0997C195.006 78.7638 195.118 77.3722 195.118 76.0919C195.118 75.3126 195.118 74.923 195.229 74.4777C195.229 74.0324 195.34 73.5871 195.34 72.7521C195.34 71.8058 194.951 70.9709 194.673 70.2473C194.506 69.8019 194.283 69.3566 194.228 69.0227L194.283 68.8ZM173.92 80.879C174.143 80.378 174.421 79.6544 174.421 78.7081C174.421 77.7062 174.477 77.2052 174.532 76.7042C174.588 76.1476 174.643 75.5909 174.643 74.5333C174.643 73.4757 174.643 72.9748 174.643 72.4738C174.643 71.9728 174.643 71.4162 174.643 70.3586C174.643 69.301 174.254 68.633 173.976 68.0764C173.716 67.594 173.772 67.2414 174.143 67.0188C174.866 66.5178 175.367 66.3508 175.812 66.3508C176.146 66.3508 176.479 66.4621 176.869 66.5735C177.537 66.7405 178.315 66.9631 179.484 66.9631C180.819 66.9631 181.821 67.4084 182.655 67.7981C183.712 68.299 184.324 68.9113 184.769 69.9133C185.214 70.9152 185.437 71.9728 185.437 73.1974C185.437 73.6984 185.437 73.9767 185.437 74.255C185.437 74.4777 185.437 74.756 185.437 75.257V76.0363C185.437 77.2052 185.437 78.2071 185.214 78.9308C184.769 80.1553 183.99 81.1016 183.045 81.6583C182.433 81.9922 181.153 82.6045 179.484 82.6045C178.427 82.6045 177.703 82.7159 177.091 82.8272C175.979 83.0498 175.478 83.1055 174.087 82.1592C173.475 81.7696 173.531 81.6583 173.865 80.9346L173.92 80.879Z" fill="#E96852"/>
<path d="M242.298 104.926C242.075 104.035 242.186 103.701 242.353 103.144C242.465 102.699 242.632 102.142 242.632 101.196C242.632 100.139 242.465 99.5819 242.298 99.0253C242.131 98.58 242.019 98.1346 242.019 97.2997C242.019 96.4647 242.131 96.0194 242.242 95.5185C242.353 95.0175 242.52 94.4609 242.52 93.4033C242.52 92.4013 242.52 91.956 242.52 91.455C242.52 91.0097 242.52 90.5088 242.52 89.5625C242.52 88.6162 242.576 88.2266 242.687 87.7813C242.798 87.2803 242.854 86.7793 242.854 85.7217C242.854 84.6641 242.687 84.1075 242.576 83.6065C242.465 83.1612 242.353 82.7159 242.353 81.8809C242.353 80.9347 242.353 80.4893 242.409 80.044C242.409 79.5431 242.465 79.0421 242.465 78.0402C242.465 77.0939 242.465 76.6486 242.576 76.2033C242.576 75.7023 242.687 75.2013 242.687 74.1994C242.687 73.1974 242.687 72.6965 242.576 72.1955C242.576 71.7502 242.465 71.2492 242.465 70.3586C242.465 69.3567 242.409 68.8557 242.298 68.3547C242.242 67.9094 242.186 67.4641 242.186 66.5178C242.186 65.6829 242.298 65.2376 242.465 64.7923C242.632 64.2913 242.798 63.7346 242.798 62.677C242.798 62.1204 242.91 61.6751 242.965 61.3411C243.188 60.3392 243.244 59.6156 242.131 58.558C240.907 57.389 240.072 57.8343 239.349 58.1683C238.904 58.391 238.514 58.558 237.847 58.558C237.179 58.558 236.734 58.3353 236.233 58.057C235.51 57.6673 234.509 57.1664 233.285 58.3353C232.116 59.5042 232.506 60.4505 232.839 61.2298C233.006 61.6751 233.229 62.1204 233.229 62.7327C233.229 63.6233 233.118 64.0686 233.062 64.5139C232.951 65.0149 232.839 65.5715 232.839 66.6291C232.839 67.5754 232.839 68.0764 232.839 68.5774C232.839 69.0783 232.839 69.5236 232.839 70.4699C232.839 71.4162 232.839 71.9172 232.839 72.4181C232.839 72.9191 232.839 73.3644 232.839 74.3107C232.839 75.3126 232.895 75.8693 233.006 76.3146C233.062 76.7599 233.173 77.2052 233.173 78.1515C233.173 79.1534 233.173 79.6544 233.285 80.1554C233.285 80.6007 233.396 81.1016 233.396 81.9923C233.396 82.8829 233.396 83.3838 233.396 83.8848C233.396 84.3858 233.34 84.8868 233.34 85.833C233.34 86.7236 233.285 87.169 233.229 87.6699C233.173 88.1709 233.062 88.6719 233.062 89.6738C233.062 90.6758 233.062 91.1767 233.173 91.6777C233.173 92.123 233.229 92.624 233.229 93.5146C233.229 94.4052 233.229 94.9062 233.118 95.3515C233.118 95.8524 233.006 96.3534 233.006 97.3554C233.006 98.3016 233.006 98.7469 232.895 99.1923C232.839 99.6932 232.784 100.194 232.784 101.196C232.784 102.198 232.784 102.643 232.784 103.144C232.784 103.645 232.784 104.091 232.784 105.037C232.784 105.594 232.673 106.039 232.617 106.429C232.45 107.319 232.227 108.098 233.451 109.267C234.675 110.436 235.51 110.269 236.4 110.102C236.79 110.047 237.235 109.935 237.847 109.935C238.459 109.935 238.904 110.047 239.349 110.158C239.683 110.269 240.072 110.325 240.462 110.325C241.018 110.325 241.63 110.102 242.353 109.434C243.633 108.154 243.299 107.263 242.91 106.262C242.743 105.872 242.576 105.427 242.465 104.87L242.298 104.926Z" fill="#E96852"/>
<path d="M229.501 93.2363C229.501 92.6797 229.501 92.4013 229.446 92.0674C229.446 91.8447 229.446 91.622 229.39 91.1767C229.39 89.6738 229.112 88.3379 228.889 87.1133C228.778 86.7237 228.722 86.334 228.667 85.8887C228.5 84.9424 228.388 83.8848 227.888 82.9942C227.164 81.6583 226.33 80.4337 225.384 79.4874C224.271 78.3742 222.992 77.4279 221.768 76.8156C220.822 76.3146 219.653 76.1476 218.596 75.9806C218.207 75.925 217.817 75.8693 217.484 75.8136C216.315 75.591 214.98 75.4797 213.2 75.4797C212.198 75.4797 211.475 75.7023 210.919 75.8136C210.028 76.092 209.695 76.1476 208.749 75.3683C207.97 74.7004 208.025 74.4777 208.248 73.6428C208.359 73.1418 208.471 72.5295 208.471 71.7502C208.471 70.7483 208.582 70.2473 208.693 69.7463C208.804 69.1897 208.971 68.5774 208.971 67.4085C208.971 66.2952 208.971 65.7386 208.971 65.2376C208.971 64.6809 208.971 64.18 208.971 63.1224C208.971 62.3987 209.194 61.8421 209.416 61.3411C209.806 60.3949 210.195 59.3929 209.027 58.057C207.859 56.8324 206.746 57.3334 205.911 57.723C205.41 57.9457 204.854 58.224 204.242 58.224C203.63 58.224 203.129 58.0013 202.684 57.8343C201.905 57.5004 200.96 57.1107 199.791 58.2797C198.623 59.4486 198.901 60.3392 199.124 61.1742C199.235 61.6195 199.402 62.0648 199.402 62.6771C199.402 63.679 199.402 64.18 199.513 64.6809C199.513 65.1263 199.624 65.6272 199.624 66.5735C199.624 67.5754 199.68 68.1321 199.791 68.6331C199.847 69.0784 199.902 69.5237 199.902 70.4699C199.902 71.3606 199.791 71.7502 199.624 72.1955C199.457 72.6965 199.29 73.2531 199.29 74.3107C199.29 75.3683 199.457 75.925 199.569 76.4259C199.68 76.8712 199.791 77.3165 199.791 78.1515C199.791 79.1534 199.791 79.6544 199.847 80.0997C199.847 80.545 199.902 81.046 199.902 81.9923C199.902 82.8829 199.791 83.3282 199.68 83.7735C199.569 84.2745 199.457 84.8311 199.457 85.8331C199.457 86.835 199.457 87.336 199.569 87.8369C199.569 88.2822 199.624 88.7832 199.624 89.7295C199.624 90.6201 199.513 91.0654 199.457 91.5107C199.346 92.0117 199.235 92.5683 199.235 93.5703C199.235 94.5165 199.235 95.0175 199.235 95.5185C199.235 96.0195 199.235 96.4648 199.235 97.411C199.235 98.3573 199.235 98.8583 199.235 99.3593C199.235 99.8602 199.235 100.306 199.235 101.252C199.235 102.254 199.29 102.755 199.402 103.256C199.457 103.701 199.513 104.146 199.513 105.093C199.513 105.705 199.346 106.095 199.179 106.54C198.901 107.263 198.567 108.154 199.791 109.267C200.514 109.88 201.071 110.102 201.572 110.102C202.017 110.102 202.406 109.935 202.74 109.824C203.185 109.657 203.686 109.49 204.409 109.49C205.466 109.49 205.967 109.546 206.523 109.601C207.08 109.657 207.636 109.768 208.804 109.768C209.973 109.768 210.473 109.768 211.03 109.657C211.586 109.657 212.087 109.601 213.144 109.601H213.979C215.258 109.601 216.371 109.601 217.539 109.379C218.986 109.045 220.544 108.766 221.768 108.043C223.047 107.375 224.271 106.373 225.328 105.26C226.052 104.48 226.497 103.478 226.886 102.588C227.053 102.198 227.22 101.864 227.387 101.474C227.554 101.085 227.776 100.751 227.999 100.417C228.5 99.5819 229.056 98.6913 229.279 97.6337C229.501 96.5761 229.501 95.4628 229.446 94.4052C229.446 94.0712 229.446 93.6816 229.446 93.3476L229.501 93.2363Z" fill="#E96852"/>
<path d="M274.066 58.391C272.842 57.2777 271.952 57.6673 271.229 58.057C270.784 58.2796 270.339 58.4466 269.671 58.4466C268.725 58.4466 268.224 58.4466 267.724 58.4466C267.223 58.4466 266.722 58.4466 265.721 58.4466C264.775 58.4466 264.33 58.391 263.829 58.3353C263.328 58.2796 262.772 58.1683 261.77 58.1683H257.82C256.874 58.1683 256.429 58.1683 255.984 58.057C255.484 58.0013 254.927 57.89 253.926 57.89C252.813 57.89 252.257 58.1126 251.7 58.2796C251.255 58.4466 250.81 58.6136 249.976 58.6136C249.308 58.6136 248.863 58.391 248.362 58.1126C247.639 57.723 246.637 57.1664 245.413 58.3353C244.245 59.4486 244.746 60.4505 245.135 61.1741C245.358 61.6194 245.636 62.0647 245.636 62.677C245.636 63.2893 245.413 63.679 245.191 64.1243C244.857 64.7923 244.356 65.7942 245.691 66.7961C247.305 68.0207 248.195 67.6868 249.252 67.2971C249.697 67.1301 250.254 66.9075 250.977 66.7961C251.589 66.6848 252.09 66.5735 252.535 66.4622C253.759 66.1282 254.204 66.0168 255.372 66.9631C255.984 67.4084 255.929 67.5754 255.65 68.3547C255.484 68.8557 255.261 69.468 255.261 70.3029C255.261 71.1935 255.15 71.6389 255.038 72.0842C254.927 72.5851 254.816 73.1418 254.816 74.1994C254.816 75.257 254.983 75.8136 255.094 76.3146C255.205 76.7599 255.317 77.2052 255.317 78.0958C255.317 79.0421 255.317 79.4874 255.205 79.9327C255.15 80.4337 255.094 80.9347 255.094 81.9366C255.094 82.8829 255.094 83.3282 254.983 83.8292C254.983 84.3301 254.872 84.8311 254.872 85.833C254.872 86.835 254.872 87.2803 254.872 87.7256C254.872 88.2266 254.872 88.7275 254.872 89.6738C254.872 90.6201 254.872 91.0654 254.816 91.5664C254.816 92.0673 254.76 92.5683 254.76 93.5702C254.76 94.6279 254.872 95.1288 254.983 95.6855C255.094 96.1308 255.205 96.5761 255.205 97.4667C255.205 98.3573 255.205 98.8583 255.15 99.3592C255.15 99.8602 255.094 100.361 255.094 101.363C255.094 102.365 255.15 102.922 255.261 103.423C255.317 103.868 255.428 104.369 255.428 105.26C255.428 105.872 255.261 106.317 255.038 106.707C254.705 107.43 254.315 108.321 255.539 109.49C256.262 110.214 256.874 110.436 257.431 110.436C257.765 110.436 258.098 110.381 258.432 110.269C258.822 110.158 259.267 110.047 259.879 110.047C260.491 110.047 260.88 110.158 261.27 110.214C262.271 110.436 262.939 110.492 264.107 109.379C265.22 108.321 265.053 107.542 264.719 106.651C264.552 106.262 264.441 105.816 264.441 105.204C264.441 104.258 264.497 103.812 264.552 103.311C264.608 102.81 264.664 102.309 264.664 101.252C264.664 100.194 264.552 99.6376 264.385 99.1366C264.274 98.6913 264.163 98.246 264.163 97.3554C264.163 96.4647 264.274 96.0751 264.441 95.6298C264.608 95.1288 264.775 94.5722 264.775 93.4589C264.775 92.5126 264.775 92.0117 264.775 91.5107C264.775 91.0097 264.775 90.5644 264.775 89.5625C264.775 88.5049 264.664 88.0039 264.552 87.4473C264.441 87.002 264.33 86.5567 264.33 85.666C264.33 84.7198 264.33 84.2188 264.33 83.7178C264.33 83.2169 264.33 82.7715 264.33 81.7696C264.33 80.7677 264.33 80.3224 264.33 79.8214C264.33 79.3204 264.33 78.8751 264.33 77.8732C264.33 76.8712 264.33 76.4816 264.385 75.9806C264.385 75.4796 264.441 74.9787 264.441 73.9767C264.441 73.0304 264.441 72.5851 264.497 72.0842C264.497 71.5832 264.608 71.0822 264.608 70.0803C264.608 69.1897 264.33 68.5774 264.163 68.0764C263.885 67.4084 263.885 67.3528 264.385 66.9075C265.276 66.2395 265.554 66.3508 266.333 66.6291C266.889 66.8518 267.612 67.0745 268.725 67.0745C269.504 67.0745 270.005 67.1858 270.505 67.2971C271.674 67.5198 272.397 67.6311 273.899 66.5178C275.123 65.5715 275.068 64.8479 274.789 63.846C274.678 63.4563 274.567 63.0667 274.567 62.5101C274.567 61.9534 274.678 61.5638 274.789 61.1741C275.012 60.3392 275.235 59.5042 274.066 58.391Z" fill="#E96852"/>
<path d="M307.949 106.317C307.448 105.872 306.892 105.482 306.614 104.87C306.113 103.924 305.89 103.423 305.612 102.977C305.39 102.532 305.111 102.031 304.666 101.085C304.166 100.139 303.832 99.6376 303.554 99.1923C303.275 98.747 302.997 98.3573 302.496 97.411C302.051 96.5761 301.94 96.1308 301.829 95.5742C301.718 95.0175 301.606 94.4052 301.05 93.3476C300.549 92.4013 300.271 91.956 300.048 91.5107C299.77 91.0654 299.548 90.6201 299.047 89.6738C298.546 88.7276 298.268 88.2822 297.99 87.7813C297.712 87.336 297.434 86.8907 296.988 85.9444C296.543 85.0538 295.987 84.6085 295.542 84.2188C295.041 83.7735 294.763 83.5509 294.763 82.6046C294.763 81.714 294.986 81.547 295.486 81.1017C295.876 80.7677 296.321 80.3224 296.766 79.5431C297.267 78.6525 297.434 78.1515 297.656 77.7062C297.823 77.2609 297.99 76.8156 298.435 76.0363C298.88 75.257 299.158 74.8674 299.436 74.5334C299.77 74.1437 300.104 73.6984 300.605 72.8078C301.106 71.9172 301.272 71.4719 301.495 70.9709C301.662 70.5256 301.884 70.136 302.33 69.301C302.775 68.4661 303.053 68.1321 303.331 67.7424C303.609 67.3528 303.943 66.9075 304.444 66.0169C304.889 65.1819 305.167 64.7366 305.39 64.347C305.612 63.9017 305.89 63.512 306.335 62.6771C306.614 62.1761 306.947 61.8421 307.281 61.5081C307.893 60.9515 308.728 60.1165 307.615 58.6136C306.502 57.1107 305.445 57.6117 304.666 58.0013C304.166 58.224 303.665 58.5023 302.997 58.5023C302.218 58.5023 301.773 58.3353 301.328 58.1683C300.605 57.89 299.826 57.6117 298.379 58.391C297.044 59.1146 296.822 59.7269 296.543 60.6175C296.432 60.9515 296.321 61.3968 296.043 61.8978C295.598 62.7884 295.375 63.2894 295.208 63.7903C295.041 64.2356 294.874 64.681 294.429 65.5159C293.984 66.4065 293.762 66.8518 293.483 67.2415C293.261 67.6868 293.038 68.0764 292.593 68.967C292.148 69.8576 291.926 70.3586 291.759 70.8039C291.592 71.2492 291.425 71.6945 290.98 72.5295C290.59 73.3088 290.312 73.6428 289.978 74.0324C289.644 74.422 289.255 74.8674 288.81 75.758C288.365 76.5929 288.142 76.9826 287.864 77.3722C287.586 77.8175 287.308 78.2072 286.863 79.0978C286.418 79.9327 286.418 80.9347 286.418 81.714C286.418 81.9923 286.418 82.3263 286.418 82.5489C286.418 82.5489 286.362 82.5489 286.306 82.5489C286.028 82.4376 285.917 82.3819 285.917 82.3263C285.861 82.1593 286.028 81.6583 286.195 81.3243C286.417 80.712 286.696 79.9327 286.696 79.0421C286.696 78.0402 286.696 77.5392 286.696 77.0382C286.696 76.5373 286.696 76.0363 286.696 74.9787C286.696 74.0324 286.807 73.5871 286.918 73.0861C287.03 72.5295 287.141 71.9729 287.141 70.9153C287.141 69.8576 286.974 69.1897 286.807 68.6887C286.64 68.1877 286.529 67.7981 286.529 66.8518C286.529 65.9055 286.64 65.5159 286.807 65.0706C286.974 64.5696 287.141 63.9573 287.141 62.8441C287.141 62.2318 287.308 61.7308 287.419 61.2298C287.697 60.3392 287.975 59.2816 286.807 58.1127C285.639 56.8881 284.581 57.3334 283.747 57.6674C283.246 57.89 282.745 58.057 282.133 58.057C281.521 58.057 281.021 57.89 280.576 57.723C279.741 57.4447 278.795 57.1107 277.627 58.2797C276.459 59.4486 276.737 60.3949 277.015 61.1742C277.182 61.6195 277.293 62.0648 277.293 62.6771C277.293 63.679 277.404 64.2356 277.46 64.7366C277.516 65.1819 277.627 65.6272 277.627 66.5735C277.627 67.5198 277.516 67.9094 277.404 68.3547C277.293 68.8557 277.126 69.4123 277.126 70.4699C277.126 71.5275 277.237 72.0842 277.349 72.5852C277.46 73.0305 277.571 73.4758 277.571 74.3664C277.571 75.3127 277.571 75.8136 277.571 76.3146C277.571 76.7599 277.571 77.2609 277.571 78.2072C277.571 79.0421 277.46 79.4874 277.293 79.9327C277.126 80.4337 276.959 80.9903 276.959 82.0479C276.959 83.1055 277.071 83.6065 277.126 84.1075C277.182 84.5528 277.293 84.9981 277.293 85.9444C277.293 86.9463 277.349 87.4473 277.46 87.9483C277.516 88.3936 277.627 88.8389 277.627 89.7851C277.627 90.7314 277.516 91.1211 277.46 91.5664C277.349 92.0674 277.237 92.624 277.237 93.6259C277.237 94.5722 277.237 95.0175 277.237 95.5185C277.237 96.0195 277.237 96.5204 277.237 97.4667C277.237 98.5243 277.404 99.0809 277.516 99.5819C277.627 100.027 277.738 100.473 277.738 101.307C277.738 102.309 277.738 102.81 277.794 103.256C277.794 103.701 277.849 104.202 277.849 105.093C277.849 105.705 277.627 106.15 277.349 106.596C276.959 107.319 276.459 108.265 277.627 109.434C278.795 110.603 279.797 110.158 280.576 109.824C281.021 109.601 281.521 109.434 282.133 109.434C282.745 109.434 283.302 109.657 283.747 109.88C284.526 110.269 285.527 110.715 286.751 109.49C287.92 108.265 287.475 107.263 287.085 106.484C286.863 105.983 286.584 105.538 286.584 104.87C286.584 103.868 286.584 103.311 286.584 102.81C286.584 102.309 286.584 101.808 286.584 100.807C286.584 99.8602 286.696 99.4149 286.807 98.9696C286.918 98.4687 287.085 97.8563 287.085 96.7987C287.085 95.7411 286.918 95.1288 286.807 94.6279C286.696 94.1826 286.584 93.6816 286.584 92.791C286.584 91.789 286.584 91.2881 286.584 90.7871C286.584 90.2861 286.584 89.7852 286.584 88.7832C286.584 87.9483 286.362 87.2803 286.195 86.7237C286.084 86.4453 285.972 86 286.028 85.8887C286.028 85.8887 286.084 85.7774 286.473 85.6661C286.529 85.6661 286.584 85.6661 286.64 85.6661C286.64 85.8331 286.64 86.0557 286.64 86.2784C286.64 86.9463 286.64 87.8926 287.085 88.7832C287.53 89.7295 287.864 90.1191 288.198 90.5644C288.476 90.9541 288.754 91.2881 289.144 92.123C289.589 93.0136 289.867 93.4589 290.145 93.8486C290.368 94.2382 290.646 94.6279 291.091 95.5185C291.536 96.3534 291.703 96.7987 291.87 97.244C292.037 97.6894 292.259 98.1903 292.704 99.0253C293.15 99.9159 293.372 100.306 293.65 100.751C293.873 101.14 294.095 101.586 294.54 102.421C294.986 103.256 295.152 103.701 295.319 104.146C295.486 104.592 295.709 105.093 296.154 105.928C296.432 106.484 296.543 106.929 296.599 107.319C296.766 108.098 296.877 108.878 298.268 109.601C300.048 110.548 300.772 110.436 302.163 110.158C302.552 110.102 302.997 109.991 303.554 109.935C304.388 109.824 305 110.047 305.668 110.325C306.113 110.492 306.669 110.715 307.226 110.715C307.838 110.715 308.45 110.436 309.062 109.657C310.23 108.098 309.062 107.096 308.227 106.429L307.949 106.317Z" fill="#E96852"/>
<path d="M342.889 106.428C342.833 106.039 342.722 105.649 342.722 105.092C342.722 104.091 342.722 103.59 342.722 103.144C342.722 102.699 342.722 102.198 342.722 101.252C342.722 100.305 342.722 99.8045 342.722 99.3592C342.722 98.8582 342.722 98.3572 342.722 97.4109C342.722 96.3533 342.555 95.7967 342.444 95.2957C342.332 94.8504 342.221 94.4051 342.221 93.5702C342.221 92.7352 342.332 92.2899 342.444 91.8446C342.555 91.3436 342.722 90.787 342.722 89.7294C342.722 88.7275 342.722 88.2821 342.722 87.7812C342.722 87.3359 342.722 86.8349 342.722 85.8886C342.722 84.9423 342.722 84.497 342.722 83.9961C342.722 83.4951 342.722 82.9941 342.722 82.0478C342.722 80.9902 342.555 80.4336 342.388 79.9326C342.221 79.4873 342.11 79.0977 342.11 78.2071C342.11 77.3165 342.165 76.8711 342.221 76.3702C342.277 75.8692 342.388 75.3682 342.388 74.3663C342.388 73.4757 342.444 73.0304 342.555 72.5851C342.666 72.0841 342.722 71.5831 342.722 70.5255C342.722 69.4679 342.666 69.0226 342.555 68.5216C342.499 68.0763 342.444 67.631 342.444 66.6847C342.444 65.6271 342.332 65.1262 342.221 64.6252C342.11 64.1799 342.054 63.7346 342.054 62.844C342.054 62.2317 342.277 61.7864 342.499 61.341C342.833 60.6731 343.334 59.7268 342.165 58.5579C340.941 57.3889 340.051 57.6116 339.272 57.8343C338.827 57.9456 338.382 58.0569 337.826 58.0569C336.824 58.0569 336.379 58.0569 335.878 58.0569C335.378 58.0569 334.877 58.0569 333.876 58.0569C333.264 58.0569 332.763 57.9456 332.318 57.7786C331.428 57.5559 330.537 57.2776 329.313 58.2796C328.034 59.2815 328.089 60.1721 328.089 61.0627C328.089 61.508 328.089 62.009 327.978 62.6213C327.7 63.6232 327.644 64.1242 327.589 64.6252C327.533 65.0705 327.477 65.5715 327.199 66.4621C326.977 67.464 326.81 67.9093 326.698 68.4103C326.587 68.8556 326.42 69.3566 326.198 70.2472C325.975 71.1935 325.864 71.6944 325.697 72.1398C325.586 72.6407 325.474 73.086 325.252 74.0323C325.029 74.9229 324.862 75.3682 324.695 75.8135C324.529 76.2588 324.306 76.7598 324.083 77.7618C323.861 78.708 323.694 79.1533 323.583 79.6543C323.471 80.0996 323.305 80.6006 323.082 81.5469C322.804 82.5488 322.748 83.0498 322.693 83.5508C322.693 84.0517 322.581 84.497 322.359 85.3876C322.136 86.3339 322.025 86.8349 321.914 87.3359C321.802 87.8368 321.691 88.2821 321.469 89.2284L320.467 93.0135C320.245 93.9598 320.078 94.4051 319.911 94.8504C319.911 94.9618 319.799 95.1287 319.799 95.2957C319.799 95.0731 319.911 94.8504 319.966 94.6834C320.133 94.1268 320.3 93.5145 320.3 92.4012C320.3 91.288 320.189 90.7313 320.078 90.1747C319.966 89.6737 319.911 89.1728 319.911 88.2265C319.911 87.1689 319.911 86.6679 319.911 86.1113C319.911 85.6103 319.911 85.0537 319.911 84.0517C319.911 83.0498 319.911 82.4375 319.855 81.9365C319.855 81.4355 319.799 80.9346 319.799 79.9326C319.799 78.9863 319.911 78.541 320.078 78.0401C320.245 77.4834 320.411 76.8711 320.411 75.7579C320.411 74.7003 320.411 74.1993 320.411 73.6427C320.411 73.1417 320.411 72.5851 320.411 71.5831C320.411 70.5812 320.411 69.9689 320.411 69.4679C320.411 68.9669 320.411 68.4103 320.411 67.4084C320.411 66.4064 320.411 65.7941 320.356 65.2931C320.356 64.7922 320.356 64.2912 320.356 63.2336C320.356 62.5656 320.523 62.0647 320.634 61.6194C320.912 60.7844 321.19 59.8938 320.078 58.6135C318.909 57.2776 317.963 57.6116 316.962 57.9456C316.628 58.0569 316.239 58.2239 315.738 58.3352C315.182 58.4465 314.792 58.3352 314.347 58.1682C313.735 57.9456 312.901 57.6673 311.843 58.7249C310.786 59.8381 310.842 60.5618 311.009 61.5637C311.065 61.9533 311.176 62.343 311.176 62.8996C311.176 63.9016 311.176 64.4025 311.231 64.9035C311.231 65.3488 311.287 65.8498 311.287 66.7961C311.287 67.7423 311.287 68.2433 311.287 68.6886C311.287 69.1896 311.287 69.6906 311.287 70.6368C311.287 71.6944 311.454 72.2511 311.621 72.752C311.732 73.1974 311.843 73.6427 311.843 74.4776C311.843 75.3126 311.732 75.7022 311.565 76.2032C311.398 76.7041 311.231 77.2608 311.231 78.3184C311.231 79.3203 311.231 79.8213 311.287 80.3223C311.287 80.7676 311.343 81.2686 311.343 82.2148C311.343 83.1611 311.343 83.6621 311.343 84.163C311.343 84.664 311.343 85.1093 311.343 86.0556C311.343 87.0575 311.398 87.6142 311.51 88.1152C311.565 88.5605 311.677 89.0058 311.677 89.952C311.677 90.8983 311.677 91.3993 311.677 91.8446C311.677 92.3456 311.677 92.7909 311.677 93.7928C311.677 94.6834 311.621 95.1287 311.51 95.6297C311.454 96.1307 311.343 96.6317 311.343 97.6336C311.343 98.6355 311.51 99.2478 311.621 99.7488C311.732 100.194 311.843 100.639 311.843 101.53C311.843 102.421 311.732 102.755 311.565 103.2C311.398 103.701 311.176 104.258 311.176 105.315C311.176 105.872 311.065 106.317 310.953 106.707C310.731 107.542 310.564 108.377 311.732 109.546C312.956 110.715 313.791 110.436 314.625 110.214C315.07 110.102 315.46 109.935 316.127 109.935C317.129 109.935 317.574 109.935 318.075 109.935C318.575 109.935 319.076 109.935 320.078 109.935C320.69 109.935 321.135 110.047 321.469 110.102C322.414 110.269 323.082 110.381 324.306 109.434C325.586 108.488 325.697 107.82 325.808 106.818C325.808 106.484 325.919 106.039 326.031 105.538L326.531 103.645C326.643 103.144 326.81 102.699 327.032 101.697C327.31 100.695 327.366 100.194 327.422 99.6931C327.477 99.2478 327.589 98.7469 327.811 97.8563C328.034 96.91 328.201 96.4647 328.368 96.0194C328.534 95.5184 328.701 95.0731 328.98 94.0711C329.202 93.1249 329.313 92.6239 329.425 92.1786C329.536 91.6776 329.647 91.2323 329.87 90.286C330.092 89.2841 330.204 88.7831 330.259 88.2821C330.315 87.8368 330.426 87.3359 330.649 86.4452C330.927 85.4433 330.927 84.8867 330.927 84.33C330.927 83.8847 330.927 83.3838 331.205 82.5488C331.428 81.6582 331.65 81.2686 331.873 80.8789C332.095 80.4336 332.373 79.9326 332.652 78.875C332.93 77.8731 332.93 77.3165 332.985 76.8155C332.985 76.3702 332.985 75.8692 333.264 74.9786C333.486 74.088 333.709 73.6983 333.876 73.253C333.876 73.1974 333.876 73.1417 333.931 73.086C333.931 73.3643 334.042 73.587 334.098 73.8097C334.209 74.3106 334.376 74.7559 334.376 75.7579C334.376 76.7598 334.265 77.2051 334.154 77.6504C334.042 78.2071 333.876 78.7637 333.876 79.9326C333.876 81.1016 334.042 81.7139 334.209 82.2148C334.376 82.7158 334.488 83.1611 334.488 84.1074C334.488 85.0537 334.376 85.499 334.265 85.9999C334.154 86.5566 333.987 87.1132 333.987 88.2265C333.987 89.3398 334.098 89.8964 334.209 90.453C334.321 90.954 334.432 91.3993 334.432 92.4012C334.432 93.4032 334.321 93.8485 334.209 94.3495C334.098 94.9061 333.987 95.4627 333.987 96.576C333.987 97.5779 333.987 98.0789 333.931 98.6355C333.931 99.1922 333.82 99.6931 333.82 100.806V104.981C333.82 105.649 333.709 106.094 333.597 106.595C333.375 107.486 333.152 108.432 334.265 109.713C334.766 110.269 335.266 110.492 335.767 110.492C336.268 110.492 336.713 110.269 337.102 110.102C337.548 109.88 337.993 109.657 338.605 109.657C339.217 109.657 339.606 109.824 339.996 109.991C340.663 110.269 341.553 110.659 342.666 109.49C343.723 108.377 343.723 107.653 343.501 106.595L342.889 106.428ZM334.098 67.7423C334.376 67.8537 334.432 67.965 334.432 67.965C334.432 68.0763 334.265 68.4103 334.154 68.7443C334.154 68.7443 334.154 68.633 334.154 68.5773C334.154 68.299 334.098 67.965 334.098 67.7423ZM318.965 98.6912C318.965 98.6912 318.965 98.5799 318.965 98.5242C318.965 98.8025 319.021 99.0808 319.076 99.3035C319.076 99.5262 319.132 99.8601 319.132 100.083C318.575 99.8601 318.52 99.8045 318.909 98.6912H318.965Z" fill="#E96852"/>
</g>
<defs>
<clipPath id="clip0_11_38754">
<rect width="343" height="172" fill="white"/>
</clipPath>
</defs>
</svg>
