<svg width="474" height="470" viewBox="0 0 474 470" fill="none" xmlns="http://www.w3.org/2000/svg">
<path d="M395.495 451.138C396.598 455.216 397.15 458.478 397.15 462.012C397.15 464.458 396.598 466.905 395.495 469.08C394.943 470.439 394.116 470.167 393.012 469.08C391.357 467.721 389.702 466.633 388.875 464.73C387.496 461.74 386.392 458.75 385.289 455.759C384.462 453.313 383.91 453.313 381.979 454.4C377.29 457.391 372.049 459.293 366.533 459.837C365.705 459.837 365.154 460.381 364.602 459.837C364.05 459.022 364.878 458.478 365.154 457.934C366.809 454.4 368.464 451.138 370.67 448.148C371.498 447.061 371.773 446.789 370.394 446.245C365.981 444.614 362.671 441.896 359.913 438.362C358.809 437.274 359.361 435.915 361.292 435.643C365.429 434.556 369.843 434.284 373.98 434.012C375.359 434.012 376.463 434.012 377.842 434.012C379.497 434.012 379.497 433.197 378.945 431.837C377.014 427.488 376.187 422.867 375.911 418.245C375.911 417.158 375.635 416.342 375.911 415.255C376.187 413.08 377.014 412.808 378.945 413.624C380.6 414.439 382.255 415.255 383.358 416.342C386.944 420.42 390.806 424.226 393.84 428.847C394.391 429.934 394.943 429.934 395.495 428.847C397.977 425.313 401.839 424.498 405.701 423.682C409.01 422.867 412.045 423.682 414.803 425.041C416.458 425.857 416.734 426.944 414.803 428.032C411.493 430.206 409.562 433.197 407.08 436.187C406.252 437.274 405.149 438.09 404.321 438.905C403.494 439.721 403.494 440.264 404.873 440.808C410.941 442.983 413.975 447.876 415.906 453.585C416.458 454.944 415.906 455.216 414.527 454.944C408.459 454.128 402.391 454.128 396.322 450.594L395.495 451.138Z" fill="#F8B500"/>
<path d="M83.3776 321.206C33.5678 237.126 61.7488 128.009 146.201 77.5821C230.151 26.9183 347.971 70.7445 397.543 155.33C447.114 239.916 409.668 332.298 325.717 382.962C241.266 433.389 132.949 405.792 83.3776 321.206Z" fill="#F8B500"/>
<path d="M343.336 302.521C341.566 304.193 339.678 305.405 337.293 303.905C335.565 302.875 334.995 299.496 336.368 296.653C337.355 294.592 338.837 292.749 340.194 290.986C341.209 289.799 342.711 289.369 344.24 289.814C345.851 290.384 346.581 291.52 346.636 293.268C346.748 296.763 346.572 300.086 343.336 302.521Z" fill="white"/>
<path d="M331.752 321.017C329.982 322.689 328.094 323.901 325.709 322.401C323.981 321.371 323.41 317.993 324.784 315.149C325.771 313.088 327.253 311.245 328.61 309.482C329.625 308.295 331.127 307.866 332.656 308.31C334.267 308.88 334.997 310.017 335.052 311.764C335.164 315.259 334.987 318.582 331.752 321.017Z" fill="white"/>
<path d="M343.114 279.48C342.675 281.011 342.029 282.496 339.996 282.375C338.584 282.39 337.035 280.532 336.943 278.451C336.842 276.911 336.993 275.209 337.307 273.759C337.53 272.724 338.123 271.986 339.292 271.592C340.416 271.405 341.28 271.92 341.848 272.804C343.145 274.824 344.11 276.879 343.114 279.48Z" fill="white"/>
<path d="M356.528 290.125C353.916 287.166 354.979 280.242 358.413 278.393C360.13 277.468 361.912 277.751 363.299 279.357C365.622 282.144 365.331 287.503 362.797 290.2C360.686 292.448 358.527 292.408 356.446 289.999L356.528 290.125Z" fill="white"/>
<path d="M364.848 307.786C363.752 308.846 362.583 309.24 361.386 308.761C360.189 308.281 359.999 307.155 360.061 305.867C360.123 304.579 360.31 303.21 360.992 302.059C361.801 300.826 362.771 299.846 364.22 300.164C365.668 300.482 366.479 301.745 366.705 303.205C366.842 305.078 366.196 306.563 364.974 307.705L364.848 307.786Z" fill="white"/>
<path d="M349.997 341.398C348.9 342.459 347.731 342.853 346.535 342.373C345.338 341.894 345.148 340.768 345.209 339.48C345.271 338.192 345.458 336.823 346.141 335.671C346.949 334.439 347.919 333.459 349.368 333.777C350.816 334.095 351.627 335.358 351.854 336.817C351.991 338.691 351.345 340.176 350.122 341.317L349.997 341.398Z" fill="white"/>
<path d="M352.971 321.12C352.342 321.524 351.838 321.848 351.136 321.585C350.434 321.323 350.443 320.782 350.37 320.116C350.423 319.368 350.432 318.828 350.899 318.171C351.24 317.595 351.788 317.065 352.535 317.12C353.363 317.302 353.768 317.933 353.715 318.681C353.824 319.681 353.438 320.464 352.89 320.994L352.971 321.12Z" fill="white"/>
<path d="M330.418 292.093C329.321 293.154 328.152 293.548 326.956 293.068C325.759 292.589 325.569 291.462 325.63 290.174C325.692 288.887 325.879 287.518 326.562 286.366C327.37 285.134 328.34 284.154 329.789 284.472C331.238 284.79 332.048 286.053 332.275 287.512C332.412 289.386 331.766 290.871 330.543 292.012L330.418 292.093Z" fill="white"/>
<path d="M295.522 314.148C293.688 314.613 291.772 314.951 290.601 312.85C289.709 311.462 290.624 308.734 292.682 307.234C294.192 306.264 295.909 305.34 297.581 304.622C298.669 304.102 300.037 304.294 300.892 305.349C301.874 306.324 301.938 307.531 301.337 308.809C300.134 311.364 298.562 313.622 295.522 314.148Z" fill="white"/>
<path d="M270.373 331.727C268.539 332.191 266.623 332.53 265.452 330.429C264.56 329.04 265.474 326.313 267.532 324.813C269.043 323.843 270.76 322.918 272.432 322.201C273.52 321.681 274.887 321.873 275.743 322.928C276.724 323.903 276.789 325.11 276.187 326.387C274.985 328.943 273.413 331.201 270.373 331.727Z" fill="white"/>
<path d="M300.871 293.415C299.9 294.395 298.975 295.168 297.535 294.309C296.464 293.749 295.994 291.911 296.892 290.264C297.367 289.067 298.131 288.042 298.894 287.016C299.361 286.36 300.279 286.127 301.106 286.309C302.015 286.617 302.421 287.248 302.53 288.248C302.747 290.248 302.677 292.076 300.952 293.541L300.871 293.415Z" fill="white"/>
<path d="M307.243 297.525C306.503 294.434 309.979 289.884 313.136 289.817C314.755 289.848 315.988 290.661 316.251 292.453C316.83 295.292 314.612 299.034 311.771 300.146C309.307 301.015 307.867 300.156 307.325 297.651L307.243 297.525Z" fill="white"/>
<path d="M305.614 322.111C304.364 322.379 303.41 322.278 302.717 321.475C302.149 320.591 302.328 319.763 302.84 318.899C303.478 317.955 303.99 317.091 304.996 316.445C306.003 315.798 307.127 315.611 308.028 316.459C308.928 317.308 309.118 318.434 308.643 319.631C308.122 321.035 306.945 321.969 305.614 322.111Z" fill="white"/>
<path d="M281.949 340.341C280.699 340.609 279.746 340.508 279.052 339.705C278.485 338.821 278.664 337.993 279.176 337.129C279.813 336.185 280.325 335.321 281.332 334.675C282.339 334.028 283.463 333.841 284.363 334.689C285.263 335.538 285.454 336.664 284.978 337.861C284.458 339.265 283.28 340.2 281.949 340.341Z" fill="white"/>
<path d="M291.875 327.012C291.875 327.012 290.751 327.199 290.426 326.694C290.102 326.189 290.192 325.775 290.488 325.406C290.703 324.911 291.126 324.461 291.629 324.138C292.132 323.815 292.717 323.618 293.167 324.042C293.617 324.466 293.816 325.052 293.475 325.628C293.214 326.33 292.585 326.734 292.001 326.931L291.875 327.012Z" fill="white"/>
<path d="M286.978 297.523C285.728 297.791 284.774 297.69 284.081 296.887C283.513 296.003 283.692 295.175 284.204 294.311C284.842 293.366 285.354 292.503 286.361 291.856C287.367 291.21 288.491 291.023 289.392 291.871C290.292 292.719 290.482 293.846 290.007 295.043C289.486 296.447 288.309 297.381 286.978 297.523Z" fill="white"/>
<path d="M248.411 326.037C247.161 326.305 245.911 326.573 245.145 325.104C244.577 324.22 245.187 322.402 246.49 321.386C247.497 320.74 248.503 320.093 249.798 319.618C250.553 319.133 251.462 319.441 252.074 320.118C252.687 320.795 252.634 321.542 252.329 322.451C251.512 324.224 250.533 325.744 248.411 326.037Z" fill="white"/>
<path d="M235.947 329.049C234.697 329.317 233.447 329.585 232.681 328.115C232.113 327.231 232.723 325.413 234.026 324.398C235.033 323.751 236.04 323.105 237.335 322.63C238.09 322.145 238.998 322.453 239.611 323.129C240.223 323.806 240.17 324.554 239.865 325.463C239.048 327.236 238.069 328.756 235.947 329.049Z" fill="white"/>
<path d="M273.619 304.676C272.945 305.287 272.397 305.817 271.326 305.257C270.75 304.914 270.353 303.742 270.828 302.545C271.214 301.762 271.682 301.105 272.149 300.449C272.571 299.999 273.029 299.883 273.65 300.019C274.271 300.156 274.595 300.661 274.461 301.282C274.606 302.615 274.464 303.777 273.412 304.63L273.619 304.676Z" fill="white"/>
<path d="M255.511 320.764C255.086 318.718 257.251 315.723 259.41 315.763C260.489 315.783 261.227 316.379 261.417 317.506C261.761 319.425 260.352 321.935 258.472 322.607C256.845 323.117 255.981 322.602 255.466 320.971L255.511 320.764Z" fill="white"/>
<path d="M254.973 331.274C254.182 331.426 253.642 331.416 253.111 330.865C252.706 330.234 252.921 329.739 253.136 329.244C253.478 328.668 253.945 328.011 254.574 327.607C255.203 327.203 255.994 327.052 256.526 327.602C257.183 328.072 257.337 328.865 256.951 329.647C256.52 330.637 255.765 331.122 254.973 331.274Z" fill="white"/>
<path d="M239.38 343.251C238.588 343.402 238.049 343.392 237.517 342.842C237.112 342.21 237.327 341.715 237.543 341.221C237.884 340.645 238.351 339.988 238.98 339.584C239.609 339.18 240.401 339.028 240.932 339.579C241.589 340.048 241.743 340.841 241.357 341.624C240.926 342.614 240.171 343.099 239.38 343.251Z" fill="white"/>
<path d="M221.914 336.813C221.914 336.813 221.249 336.884 221.086 336.632C220.924 336.379 220.843 336.253 221.221 336.01C221.472 335.849 221.643 335.561 221.976 335.526C222.227 335.364 222.479 335.202 222.848 335.5C223.01 335.753 223.173 336.005 223.002 336.293C222.831 336.581 222.454 336.823 221.995 336.94L221.914 336.813Z" fill="white"/>
<path d="M242.769 315.038C241.977 315.19 241.437 315.18 240.906 314.629C240.501 313.998 240.716 313.503 240.931 313.008C241.273 312.432 241.74 311.776 242.369 311.372C242.998 310.968 243.79 310.816 244.321 311.366C244.978 311.836 245.132 312.629 244.746 313.412C244.315 314.402 243.56 314.887 242.769 315.038Z" fill="white"/>
</svg>
